<svg id="Wortmarke" xmlns="http://www.w3.org/2000/svg" viewBox="0 0 792.9 483.8"><defs><style>.cls-1{fill:#e1000f;}</style></defs><path class="cls-1" d="M149.62,267.27H121.25c-2.38,0-4-.5-4.7-1.48s-1-2.58-.78-4.71l8.87-61.46h-20.4L95.4,263.43c-1,6.43.28,11.58,3.69,15.29s8.38,5.58,14.81,5.58c16.44,0,29-.43,37.41-1.29l5.18-.59s0,0,0,0c-.22-.25-.44-.49-.64-.75A31.55,31.55,0,0,1,149.62,267.27Z"/><path class="cls-1" d="M114.89,166.22h30.16l3,23.2h20.27l-14-83.74a6.6,6.6,0,0,0-2.11-4.16,6.8,6.8,0,0,0-4.54-1.69H129.11c-3.66,0-6.15,1.67-7.4,5L84.13,189.42h21.23Zm17.75-42.87c.5-1.26,1.52-4,3-8.29h3.18c.17,3.69.38,6.5.63,8.34L142.9,150H121.61Z"/><path class="cls-1" d="M198.21,149.48c4.5-3.25,12.41-7.75,22.29-7.75h2.73l2.6-18.32h-2.38c-8.22,0-16.47,4.49-26,13.36V125.22H182l-9,64.2h19.74Z"/><path class="cls-1" d="M325.79,191c11.5,0,21-1.52,28.1-4.53l.23-.1-1.35-12.7-.34,0A208.41,208.41,0,0,1,328,175.09c-4.3,0-7.46-.72-9.41-2.13s-2.89-4-3-7.93l18.5-1.39c8.43-.6,14.77-2.22,18.84-4.82s6.62-7,7.49-13.12c1.05-7.3-.48-12.9-4.55-16.66s-11.77-5.63-23-5.63c-12.05,0-21,2.33-26.5,6.91s-9.14,13.2-10.69,25.6c-1.38,11.81.25,20.7,4.84,26.41S313.63,191,325.79,191Zm-4.46-49.91c1.94-2,5.4-3.05,10.27-3.05l1.35,0c3.47,0,5.8.3,6.93.88s1.68,2.29,1.44,4.95c-.34,2.9-1.26,4.9-2.76,5.95s-4,1.75-7.39,2l-14.38,1.37C317.88,147.12,319.41,143.05,321.33,141.05Z"/><polygon class="cls-1" points="390.09 125.22 370.47 125.22 361.49 189.42 381.1 189.42 390.09 125.22"/><path class="cls-1" d="M510.41,125.22,505,164.68a73.73,73.73,0,0,1-10.35,7.62,16.2,16.2,0,0,1-7.9,2.15c-1.93,0-3.25-.5-3.91-1.47s-.86-2.76-.53-5.24l6.12-42.52H468.66l-6.61,47.57c-.87,5.66.13,10.18,3,13.42s7.41,4.88,13.58,4.88c8.72,0,17.84-4.44,27.12-13.22v11.55h15.32l8.85-64.2Z"/><path class="cls-1" d="M581.89,123.41c-9.32,0-19,4.7-28.66,14V125.22H537.65L528.72,189l-.05.38h19.74l5.44-39.34c8.27-6.48,14.84-9.81,19.55-9.89,1.9-.08,3.16.36,3.69,1.31s.63,3,.22,5.91l-5.85,42h19.61l6.74-47.58c.87-5.84-.2-10.42-3.18-13.62S587.37,123.41,581.89,123.41Z"/><path class="cls-1" d="M333,217.91c-12.05,0-21,2.32-26.5,6.91s-9.13,13.2-10.68,25.6c-1.38,11.81.24,20.7,4.84,26.41s13.09,8.63,25.26,8.63c11.5,0,20.95-1.52,28.09-4.53l.23-.1-1.35-12.7-.34,0a208.41,208.41,0,0,1-24.44,1.42c-4.3,0-7.46-.72-9.41-2.13s-2.88-4-3-7.93l18.5-1.39c8.43-.6,14.77-2.22,18.84-4.82s6.63-7,7.5-13.12c1-7.3-.49-12.9-4.55-16.66S344.21,217.91,333,217.91Zm8.44,20.4c-.33,2.9-1.26,4.9-2.76,5.95s-4,1.75-7.38,2l-14.39,1.38c1.1-6,2.62-10.09,4.54-12.09s5.4-3.06,10.27-3.06h1.35c3.47,0,5.8.3,6.93.88S341.69,235.65,341.45,238.31Z"/><path class="cls-1" d="M414.62,217.91c-9.31,0-18.95,4.7-28.66,14V219.72H370.38l-9,64.2h19.75l5.43-39.34c8.27-6.48,14.85-9.81,19.55-9.89,1.92-.09,3.16.36,3.69,1.31s.63,3,.22,5.91l-5.85,42H423.8l6.74-47.58c.87-5.84-.2-10.42-3.18-13.62S420.1,217.91,414.62,217.91Z"/><path class="cls-1" d="M272.47,123.55c-7.63,0-15.38,3.4-23.08,10.11.57-3.81,2.65-19.47,3.85-28.54a135,135,0,0,1-17.82-1.42l-1.56-.23L222.23,186l.25.09a81.1,81.1,0,0,0,16.25,3.63,134.72,134.72,0,0,0,18,1.42c10.35,0,18.19-2.53,23.3-7.51S288.56,170,290.2,158c1.81-12.39,1.27-21.31-1.58-26.5S280.3,123.55,272.47,123.55Zm-2.13,33c-1.19,8.4-2.85,13.84-4.94,16.19s-6.25,3.54-12.39,3.62c-1.11,0-4.41-.08-9.54-.24l3.8-27.22c7.33-6.13,13.52-9.24,18.37-9.24,2.87,0,4.56.93,5.16,2.85S271.27,149.26,270.34,156.57Z"/><path class="cls-1" d="M429.08,105.78l-1.56.23a137.33,137.33,0,0,1-18,1.42l-2.58,17.8H395.29l-1.71,13.41H405l-4.84,33.25c-.87,5.92.2,10.63,3.17,14S410.94,191,417,191c7.31,0,13.33-.83,17.9-2.47l.24-.08-.94-14H425.4c-2.47,0-4-.38-4.71-1.12s-.83-2.27-.5-4.56l4.21-30.13h17.66l1.9-13.42H426.43Z"/><path class="cls-1" d="M377.62,118.76h8.12c3.78,0,6-1.83,6.52-5.45l.9-7a5.83,5.83,0,0,0-1.09-4.68c-1-1.08-2.53-1.62-4.65-1.62h-8c-3.88,0-6,1.88-6.39,5.57l-.9,6.83c-.27,2.08.06,3.67,1,4.73A5.74,5.74,0,0,0,377.62,118.76Z"/><path class="cls-1" d="M672.17,103.7a134.71,134.71,0,0,1-17.82,1.42c-.07.5-3.42,19.81-3.42,19.81a128.16,128.16,0,0,0-19.52-1.52,36.52,36.52,0,0,0-10.09,1.24,23.23,23.23,0,0,0-8.24,4.57,24.38,24.38,0,0,0-6.6,10,75.33,75.33,0,0,0-4,16.83c-1.64,12.21-.93,21.17,2.1,26.62s8.27,8.29,15.49,8.29c8.88,0,17.65-4.26,26.09-12.67v11.13h15.57l12-85.95Zm-26.77,61a54.59,54.59,0,0,1-9.71,7.15,19.12,19.12,0,0,1-8.68,2.35c-3,.08-4.64-1-5.2-3.42s-.37-7.31.64-14.38c1.11-8.31,2.68-13.6,4.69-15.73s6.11-3.18,12.26-3.18h9.79Z"/><path class="cls-1" d="M194.19,217.91c-12.06,0-21,2.32-26.51,6.91S158.55,238,157,250.42c-1.38,11.81.25,20.7,4.84,26.41s13.09,8.63,25.26,8.63c11.5,0,21-1.52,28.09-4.53l.23-.1-1.35-12.7-.33,0a208.59,208.59,0,0,1-24.45,1.42c-4.29,0-7.46-.72-9.41-2.13s-2.88-4-3-7.93l18.5-1.39c8.43-.6,14.77-2.22,18.84-4.82s6.63-7,7.5-13.12c1-7.3-.49-12.9-4.55-16.66S205.39,217.91,194.19,217.91Zm8.43,20.4c-.33,2.9-1.26,4.9-2.76,5.95s-4,1.75-7.38,2l-14.38,1.38c1.09-6,2.62-10.09,4.54-12.09s5.39-3.06,10.27-3.06h1.35c3.47,0,5.79.3,6.93.88S202.86,235.65,202.62,238.31Z"/><path class="cls-1" d="M272.47,218c-7.63,0-15.38,3.4-23.08,10.12.57-3.82,2.65-19.48,3.85-28.55a133.28,133.28,0,0,1-17.82-1.42l-1.56-.23-11.63,82.49.25.09a79.73,79.73,0,0,0,16.25,3.63,134.72,134.72,0,0,0,18,1.42c10.35,0,18.19-2.52,23.3-7.5s8.51-13.6,10.15-25.65c1.81-12.39,1.27-21.3-1.58-26.49S280.3,218,272.47,218Zm-2.13,33c-1.19,8.4-2.85,13.85-4.94,16.19s-6.25,3.55-12.39,3.63c-1.11,0-4.41-.09-9.54-.25l3.8-27.21c7.33-6.14,13.52-9.25,18.37-9.25,2.87,0,4.56.94,5.16,2.86S271.27,243.76,270.34,251.06Z"/><path class="cls-1" d="M119.18,357.75H110v25.37h-3.73V357.75H97.19v-3.07h22Z"/><path class="cls-1" d="M145.25,383.12h-3.77V370H127.15v13.15H123.4V354.68h3.75v12.23h14.33V354.68h3.77Z"/><path class="cls-1" d="M171.93,354.68V374a9,9,0,0,1-2.53,6.58,10.21,10.21,0,0,1-6.8,2.87l-1,0a10.64,10.64,0,0,1-7.44-2.52,9,9,0,0,1-2.81-6.93V354.68h3.71v19.26a5.93,5.93,0,0,0,6.54,6.5,6.53,6.53,0,0,0,4.87-1.7,6.46,6.46,0,0,0,1.69-4.78V354.68Zm-16.58-4.4a2.15,2.15,0,0,1,.54-1.49,2.06,2.06,0,0,1,1.59-.59,2.08,2.08,0,0,1,1.6.59,2.11,2.11,0,0,1,.55,1.49,2,2,0,0,1-2.15,2.06,2.06,2.06,0,0,1-1.59-.59A2.12,2.12,0,0,1,155.35,350.28Zm8.4,0a2.19,2.19,0,0,1,.54-1.5,2,2,0,0,1,1.59-.6,2.05,2.05,0,0,1,1.6.6,2.2,2.2,0,0,1,.55,1.5,2.13,2.13,0,0,1-.55,1.47,2.08,2.08,0,0,1-1.6.59,2,2,0,0,1-1.59-.59A2.12,2.12,0,0,1,163.75,350.32Z"/><path class="cls-1" d="M188.28,371.61H181.6v11.51h-3.77V354.68h9.42q4.8,0,7.39,2.19a7.89,7.89,0,0,1,2.59,6.37,7.6,7.6,0,0,1-1.44,4.62,8.56,8.56,0,0,1-4,2.95l6.68,12.07v.24h-4Zm-6.68-3.06h5.76a6.5,6.5,0,0,0,4.45-1.45,4.91,4.91,0,0,0,1.65-3.87,5.13,5.13,0,0,0-1.58-4.05,6.62,6.62,0,0,0-4.54-1.43H181.6Z"/><path class="cls-1" d="M206.5,383.12h-3.75V354.68h3.75Z"/><path class="cls-1" d="M235.21,383.12h-3.77L217.13,361.2v21.92h-3.77V354.68h3.77l14.35,22v-22h3.73Z"/><path class="cls-1" d="M262.87,379.39a8.63,8.63,0,0,1-4,3.09,16.21,16.21,0,0,1-6,1,11.75,11.75,0,0,1-6.17-1.63,10.88,10.88,0,0,1-4.17-4.64,16,16,0,0,1-1.51-7v-2.48q0-6.44,3-10a10.45,10.45,0,0,1,8.43-3.54,10.78,10.78,0,0,1,7.17,2.28,9.86,9.86,0,0,1,3.32,6.45h-3.75q-1-5.67-6.72-5.66a6.62,6.62,0,0,0-5.71,2.65q-2,2.64-2,7.67V370a12.13,12.13,0,0,0,2.18,7.62,7.1,7.1,0,0,0,5.92,2.82,12.73,12.73,0,0,0,3.69-.47,5.66,5.66,0,0,0,2.62-1.57V372h-6.58V369h10.31Z"/><path class="cls-1" d="M285.19,370H272.87v10.08h14.32v3.07H269.12V354.68H287v3.07H272.87v9.16h12.32Z"/><path class="cls-1" d="M313.71,383.12h-3.77L295.62,361.2v21.92h-3.77V354.68h3.77l14.36,22v-22h3.73Z"/></svg>