<?xml version="1.0" encoding="UTF-8"?><svg id="b" xmlns="http://www.w3.org/2000/svg" width="93.7999986mm" height="21.7339997mm" viewBox="0 0 265.8897638 61.608189"><path d="M160.8945362,21.0480193l-.3603516-4.5283203c-.0263672-.3876953-.0449219-1.0087891-.0449219-1.0449219-.0175781.0546875-.1347656.5859375-.2431641.9638672l-1.3232422,4.609375h-.6298828l-1.2246094-4.3847656c-.1708984-.6025391-.2880859-1.0712891-.3056641-1.1787109-.0097656.0898438-.0449219.8183594-.0722656,1.1699219l-.3417969,4.3935547h-.7119141l.5400391-6.1757812h1.0810547l1.125,4.0332031c.1533203.5673828.234375,1.0175781.2431641,1.0712891.0087891-.0449219.0898438-.5126953.2246094-1l1.1621094-4.1044922h1.0888672l.53125,6.1757812h-.7382812Z"/><path d="M163.4941456,15.7267302c-.3056641,0-.5488281-.2421875-.5488281-.5400391,0-.3056641.2431641-.5576172.5488281-.5576172s.5488281.2431641.5488281.5488281c0,.3066406-.2431641.5488281-.5488281.5488281ZM163.1162159,21.0480193v-4.4658203l.7294922-.1171875v4.5830078h-.7294922Z"/><path d="M168.1386768,21.0480193v-3.0341797c0-.4775391-.0361328-.59375-.1621094-.7470703-.0996094-.1171875-.2880859-.1894531-.4951172-.1894531-.3603516,0-.9189453.2880859-1.2431641.6308594v3.3398438h-.6835938v-3.4570312c0-.5673828-.1347656-.8828125-.1708984-.9453125l.6835938-.1894531c.0361328.0634766.1621094.3779297.1621094.7021484.46875-.4677734.9365234-.6933594,1.4140625-.6933594.4853516,0,.9179688.2617188,1.0976562.6572266.0722656.1621094.1083984.3427734.1083984.5224609v3.4033203h-.7109375Z"/><path d="M170.9365284,15.7267302c-.3056641,0-.5488281-.2421875-.5488281-.5400391,0-.3056641.2431641-.5576172.5488281-.5576172s.5488281.2431641.5488281.5488281c0,.3066406-.2431641.5488281-.5488281.5488281ZM170.5585987,21.0480193v-4.4658203l.7285156-.1171875v4.5830078h-.7285156Z"/><path d="M174.1953175,21.1827849c-.5673828,0-1.1884766-.1708984-1.6474609-.4501953l.2705078-.5214844c.4589844.2783203.9267578.4228516,1.421875.4228516.5488281,0,.9091797-.296875.9091797-.7744141,0-.4052734-.2246094-.6298828-.7382812-.7382812l-.5576172-.1171875c-.7382812-.1533203-1.1347656-.6123047-1.1347656-1.2333984,0-.8105469.6572266-1.3769531,1.59375-1.3769531.4677734,0,.9902344.1435547,1.3681641.359375l-.2607422.5224609c-.3964844-.1884766-.7294922-.3242188-1.1259766-.3242188-.5126953,0-.8457031.296875-.8457031.7382812,0,.3417969.1708984.5498047.6484375.6484375l.59375.1259766c.8105469.1708984,1.1972656.5849609,1.1972656,1.2519531,0,.8730469-.6835938,1.4667969-1.6923828,1.4667969Z"/><path d="M178.821294,17.0958708h-.9355469v2.8896484c0,.4951172.1347656.6660156.5761719.6660156.1972656,0,.3144531-.0263672.4404297-.0898438l.0996094.4501953c-.2255859.1171875-.4775391.1806641-.7929688.1806641-.2333984,0-.4140625-.0458984-.5849609-.1269531-.3144531-.1523438-.4316406-.4404297-.4316406-.890625v-3.0791016h-.5849609v-.53125h.5849609c0-.3876953.0537109-.9902344.0722656-1.1347656l.7373047-.1621094c-.0175781.1445312-.0898438.765625-.0898438,1.296875h1.1259766l-.2167969.53125Z"/><path d="M180.5673878,18.9230193v.1083984c0,.4228516.0537109.7470703.2070312.9814453.2519531.3867188.6660156.5488281,1.1162109.5488281.4326172,0,.7832031-.1347656,1.0986328-.4228516l.2695312.4501953c-.3955078.3603516-.9355469.5576172-1.5117188.5576172-1.2431641,0-1.9902344-.8994141-1.9902344-2.3857422,0-.7558594.1621094-1.2421875.5400275-1.6923828.3603631-.4228516.8017693-.6210938,1.3418084-.6210938.4863281,0,.9091797.1708984,1.2148438.4863281.3876953.3955078.5136719.8193359.5136719,1.890625v.0986328h-2.7998047ZM182.4130909,17.3927458c-.1533203-.2431641-.46875-.3964844-.8105469-.3964844-.6386719,0-.9990234.46875-1.0351562,1.3955078h2.0527344c-.0087891-.4863281-.0722656-.7832031-.2070312-.9990234Z"/><path d="M186.625005,17.2394255c-.0449219-.0175781-.1259766-.0361328-.1982422-.0361328-.2695312,0-.5400391.1171875-.7470703.3242188s-.2607422.3427734-.2607422.7119141v2.8085938h-.7021484v-3.4570312c0-.5849609-.1259766-.8916016-.1533203-.9541016l.7021484-.1894531c.0361328.0722656.1708984.3964844.1445312.7294922.3242188-.4589844.8007812-.7470703,1.2597656-.7470703.1083984,0,.2167969.0351562.2431641.0449219l-.2880859.7646484Z"/><path d="M188.0107471,15.7267302c-.3056641,0-.5488281-.2421875-.5488281-.5400391,0-.3056641.2431641-.5576172.5488281-.5576172s.5488281.2431641.5488281.5488281c0,.3066406-.2431641.5488281-.5488281.5488281ZM187.6328175,21.0480193v-4.4658203l.7285156-.1171875v4.5830078h-.7285156Z"/><path d="M193.2324268,21.2374724c-.2978516-.2431641-.4238281-.4238281-.4863281-.7207031-.3427734.4589844-.8105469.6845703-1.4228516.6845703-.5673828,0-.9902344-.2431641-1.1787109-.6396484-.0810547-.1708984-.1171875-.4052734-.1171875-.6660156v-3.2949219l.6933594-.1357422v3.2236328c0,.4228516.0625.6123047.2695312.7558594.1445312.0996094.3515625.1533203.5488281.1533203.4414062,0,.9003906-.3242188,1.1435547-.8105469v-3.1777344l.6933594-.1171875v3.2685547c0,.5664062.0810547.7919922.3056641.9990234l-.4492188.4775391Z"/><path d="M199.8740284,21.0480193v-3.3134766c0-.4316406-.1972656-.6572266-.5761719-.6572266-.4052734,0-.7197266.2617188-1.1884766.6933594v3.2773438h-.7109375v-3.1875c0-.2695312-.0263672-.4501953-.1259766-.5761719-.1083984-.1259766-.2519531-.1796875-.4589844-.1796875-.3417969,0-.6748047.1708984-1.1435547.59375v3.3496094h-.6748047v-3.4755859c0-.5761719-.1259766-.890625-.1621094-.9541016l.6835938-.1621094c.0361328.0722656.1621094.3876953.1621094.6660156.2978516-.3330078.8466797-.6748047,1.3056641-.6748047.4414062,0,.8828125.2705078,1.0449219.7470703.4316406-.4589844.9804688-.7470703,1.4394531-.7470703.6669922,0,1.1259766.5039062,1.1259766,1.2158203v3.3847656h-.7207031Z"/><path d="M157.8789112,25.2863005c-.1708984-.0986328-.4238281-.2070312-.6660156-.2070312-.3964844,0-.6123047.2792969-.6123047.7919922v.6933594h1.2421875l-.2158203.53125h-1.0263672v3.9521484h-.7382812v-3.9521484h-.4326172v-.53125h.4326172v-.7021484c0-.6660156.3056641-.9541016.4951172-1.0986328.2158203-.1621094.4589844-.2333984.7919922-.2333984.3867188,0,.7294922.0898438.9902344.2607422l-.2607422.4951172Z"/><path d="M161.7041065,31.2374724c-.2978516-.2431641-.4238281-.4238281-.4863281-.7207031-.3427734.4589844-.8105469.6845703-1.4228516.6845703-.5673828,0-.9902344-.2431641-1.1787109-.6396484-.0810547-.1708984-.1171875-.4052734-.1171875-.6660156v-3.2949219l.6933594-.1347656v3.2226562c0,.4228516.0625.6123047.2695312.7558594.1445312.0996094.3515625.1533203.5488281.1533203.4414062,0,.9003906-.3242188,1.1435547-.8105469v-3.1777344l.6933594-.1171875v3.2685547c0,.5664062.0810547.7919922.3066406.9990234l-.4501953.4775391ZM159.2373096,25.934738c-.2617188,0-.46875-.2167969-.46875-.4775391,0-.2519531.2070312-.4589844.4589844-.4589844.2617188,0,.46875.2070312.46875.4589844,0,.2607422-.1982422.4775391-.4589844.4775391ZM161.1005909,25.934738c-.2607422,0-.4677734-.2167969-.4677734-.4775391,0-.2519531.2070312-.4589844.4589844-.4589844.2607422,0,.4677734.2070312.4677734.4589844,0,.2607422-.1982422.4775391-.4589844.4775391Z"/><path d="M165.375005,27.2394255c-.0449219-.0175781-.1259766-.0351562-.1982422-.0351562-.2695312,0-.5400391.1162109-.7470703.3232422-.2070312.2080078-.2607422.3427734-.2607422.7119141v2.8085938h-.7021484v-3.4570312c0-.5849609-.1259766-.8916016-.1533203-.9541016l.7021484-.1894531c.0361328.0722656.1708984.3964844.1445312.7294922.3242188-.4589844.8007812-.7470703,1.2597656-.7470703.1083984,0,.2167969.0361328.2431641.0449219l-.2880859.7646484Z"/><path d="M171.8203175,30.7872771c-.4052734.2607422-.8193359.3779297-1.3867188.3779297-.7382812,0-1.3681641-.1806641-1.9804688-.5585938l.3242188-.5761719c.5126953.3691406,1.0351562.53125,1.65625.53125.46875,0,.7207031-.0722656.9814453-.2695312.296875-.2255859.4414062-.5224609.4414062-.8828125,0-.5488281-.3603516-.9267578-1.1074219-1.1523438l-.6210938-.1884766c-.5585938-.171875-.8554688-.2978516-1.0986328-.5498047-.2519531-.2695312-.3867188-.6123047-.3867188-1.0078125,0-1.0537109.8007812-1.7734375,1.9980469-1.7734375.6660156,0,1.2783203.1972656,1.8632812.59375l-.3232422.53125c-.5947266-.3867188-.9726562-.5224609-1.5039062-.5224609-.7744141,0-1.2333984.3876953-1.2333984,1.0175781,0,.4951172.296875.7744141,1.0263672,1.0087891l.7109375.2246094c.5498047.1708984.8378906.3330078,1.0898438.6210938s.4052734.7021484.4052734,1.0898438c0,.5761719-.3066406,1.1337891-.8554688,1.4853516Z"/><path d="M175.6445362,31.1652068c-1.2333984,0-1.9355469-.9091797-1.9355469-2.3857422,0-1.4589844.7294922-2.3496094,1.9082031-2.3496094.7480469,0,1.2333984.3417969,1.5400391.7832031.2792969.4052734.4140625.9365234.4140625,1.6650391,0,1.4951172-.8017578,2.2871094-1.9267578,2.2871094ZM176.562505,27.5821989c-.1884766-.3964844-.5849609-.5761719-.9541016-.5761719-.3955078,0-.7646484.1884766-.9179688.4863281-.1445312.2783203-.2158203.6386719-.2158203,1.1699219,0,.6298828.1074219,1.1884766.2792969,1.4677734.1611328.2695312.5214844.4501953.9091797.4501953.4677734,0,.8193359-.2431641.9716797-.6757812.0996094-.2792969.1347656-.53125.1347656-.9716797,0-.6308594-.0625-1.0537109-.2070312-1.3505859Z"/><path d="M181.4589893,31.0480193h-2.9882812v-.5400391l2.4394531-3.3847656h-2.2509766v-.5585938h2.9892578v.5761719l-2.3320312,3.3671875h2.4765625l-.3339844.5400391Z"/><path d="M183.3398487,25.7277068c-.3056641,0-.5488281-.2431641-.5488281-.5400391,0-.3066406.2431641-.5585938.5488281-.5585938s.5488281.2431641.5488281.5488281c0,.3066406-.2431641.5498047-.5488281.5498047ZM182.961919,31.0480193v-4.4648438l.7294922-.1171875v4.5820312h-.7294922Z"/><path d="M188.39063,31.2189177c-.3066406-.0986328-.53125-.3417969-.6123047-.6572266-.4326172.4326172-.7832031.6035156-1.296875.6035156-1.1074219,0-1.4404297-.6757812-1.4404297-1.2783203,0-1.0175781.8730469-1.6113281,2.3769531-1.6113281.0986328,0,.1708984,0,.3154297.0087891v-.3154297c0-.3955078-.0185547-.5576172-.1445312-.7021484-.1435547-.1621094-.3242188-.2431641-.6035156-.2431641-.5039062,0-1.1425781.2705078-1.4306641.53125l-.3515625-.5039062c.5937383-.3964844,1.2333984-.6035156,1.8818359-.6035156.6210938,0,1.0527344.2431641,1.2421875.7021484.0986328.2431641.1083984.5859375.0986328.9902344l-.0351562,1.4765625c-.0185547.7294922.0263672.9189453.359375,1.0986328l-.359375.5039062ZM187.3642628,28.7521208c-1.1347656,0-1.5400391.3876953-1.5400391,1.0712891,0,.53125.2617188.8193359.7744141.8193359.4589844,0,.8818359-.2792969,1.0888672-.7021484l.0273438-1.1699219c-.0898438-.0097656-.2519531-.0185547-.3505859-.0185547Z"/><path d="M190.8642628,31.137863c-.2158203,0-.3964844-.0625-.53125-.1884766-.1435547-.1259766-.2158203-.3154297-.2158203-.6396484v-4.7529297c0-.5224609-.0898438-.8554688-.1083984-.9189453l.7021484-.1347656c.0273438.0722656.1171875.4501953.1171875,1.0625v4.5820312c0,.3515625.0537109.4501953.2519531.4501953.0185547,0,.0546875-.0087891.0898438-.0175781l.1445312.4589844c-.1796875.0810547-.2607422.0986328-.4501953.0986328Z"/><path d="M193.07813,28.9230193v.1083984c0,.4228516.0537109.7470703.2070312.9814453.2519531.3867188.6660156.5488281,1.1162109.5488281.4326172,0,.7832031-.1347656,1.0986328-.4228516l.2695312.4501953c-.3955078.3603516-.9355469.5576172-1.5117188.5576172-1.2431641,0-1.9902344-.8994141-1.9902344-2.3857422,0-.7558594.1621094-1.2421875.5400391-1.6923828.3603516-.4228516.8017578-.6210938,1.3417969-.6210938.4863281,0,.9091797.1708984,1.2148438.4863281.3876953.3964844.5136719.8193359.5136719,1.890625v.0986328h-2.7998047ZM194.9238331,27.3927458c-.1533203-.2431641-.46875-.3955078-.8105469-.3955078-.6386719,0-.9990234.4677734-1.0351562,1.3945312h2.0527344c-.0087891-.4853516-.0722656-.7832031-.2070312-.9990234Z"/><path d="M198.4697315,31.1827849c-.5673828,0-1.1884766-.1708984-1.6474609-.4501953l.2705078-.5214844c.4589844.2783203.9267578.4228516,1.421875.4228516.5498047,0,.9091797-.296875.9091797-.7744141,0-.4052734-.2246094-.6298828-.7382812-.7382812l-.5576172-.1171875c-.7382812-.1523438-1.1347656-.6123047-1.1347656-1.2333984,0-.8095703.6572266-1.3769531,1.59375-1.3769531.4677734,0,.9902344.1435547,1.3681641.3603516l-.2607422.5214844c-.3964844-.1884766-.7294922-.3242188-1.1259766-.3242188-.5126953,0-.8457031.2978516-.8457031.7382812,0,.3427734.1708984.5498047.6484375.6484375l.59375.1259766c.8105469.1708984,1.1972656.5849609,1.1972656,1.2519531,0,.8730469-.6835938,1.4667969-1.6923828,1.4667969Z"/><path d="M202.250005,31.7140349c-.1806641.234375-.4775391.46875-.7568359.6210938l-.2519531-.3955078c.3515625-.1708984.5585938-.4501953.6035156-.8017578-.0273438.0087891-.0810547.0087891-.0996094.0087891-.2695312,0-.4951172-.2607422-.4951172-.5761719,0-.359375.2792969-.6474609.6308594-.6474609.4140625,0,.7109375.359375.7109375.8642578,0,.3144531-.1259766.6386719-.3417969.9267578Z"/><path d="M208.055669,31.1466521c-.7744141,0-1.4316406-.2695312-1.8994141-.7734375-.5224609-.5673828-.765625-1.3330078-.765625-2.3955078,0-1.1787109.3154297-2.0166016.9550781-2.5927734.4404297-.3955078.9716797-.5849609,1.6113281-.5849609.6572266,0,1.2246094.2070312,1.6923828.6123047l-.3330078.4589844c-.5039062-.3417969-.8642578-.4765625-1.3417969-.4765625-.7197266,0-1.2871094.3330078-1.5390625,1.0439453-.1621094.4589844-.2431641.9814453-.2431641,1.5664062,0,.8105469.1533203,1.4677734.4316406,1.8730469.2792969.4042969.9091797.6572266,1.4951172.6572266.3867188,0,.7197266-.0810547.9814453-.2431641v-1.8818359h-1.2431641l-.1435547-.6123047h2.0791016v2.8808594c-.4404297.2880859-1.1074219.4677734-1.7373047.4677734Z"/><path d="M211.9521534,28.9230193v.1083984c0,.4228516.0537109.7470703.2070312.9814453.2519531.3867188.6660156.5488281,1.1162109.5488281.4326172,0,.7832031-.1347656,1.0986328-.4228516l.2695312.4501953c-.3955078.3603516-.9355469.5576172-1.5117188.5576172-1.2431641,0-1.9902344-.8994141-1.9902344-2.3857422,0-.7558594.1621094-1.2421875.5400391-1.6923828.3603516-.4228516.8017578-.6210938,1.3417969-.6210938.4863281,0,.9091797.1708984,1.2148438.4863281.3876953.3964844.5136719.8193359.5136719,1.890625v.0986328h-2.7998047ZM213.7978565,27.3927458c-.1533203-.2431641-.46875-.3955078-.8105469-.3955078-.6386719,0-.9990234.4677734-1.0351562,1.3945312h2.0527344c-.0087891-.4853516-.0722656-.7832031-.2070312-.9990234Z"/><path d="M217.343755,31.1827849c-.5673828,0-1.1884766-.1708984-1.6474609-.4501953l.2705078-.5214844c.4589844.2783203.9267578.4228516,1.421875.4228516.5488281,0,.9091797-.296875.9091797-.7744141,0-.4052734-.2246094-.6298828-.7382812-.7382812l-.5576172-.1171875c-.7382812-.1523438-1.1347656-.6123047-1.1347656-1.2333984,0-.8095703.6572266-1.3769531,1.59375-1.3769531.4677734,0,.9902344.1435547,1.3681641.3603516l-.2607422.5214844c-.3964969-.1884766-.7294922-.3242188-1.1259766-.3242188-.5126953,0-.8457031.2978516-.8457031.7382812,0,.3427734.1708984.5498047.6484375.6484375l.59375.1259766c.8105469.1708984,1.1972656.5849609,1.1972656,1.2519531,0,.8730469-.6835938,1.4667969-1.6923828,1.4667969Z"/><path d="M223.5009815,31.2374724c-.2978516-.2431641-.4238281-.4238281-.4863281-.7207031-.342786.4589844-.8105469.6845703-1.4228516.6845703-.5673828,0-.9902344-.2431641-1.1787109-.6396484-.0810547-.1708984-.1171875-.4052734-.1171875-.6660156v-3.2949219l.6933594-.1347656v3.2226562c0,.4228516.0625.6123047.2695312.7558594.1445312.0996094.3515625.1533203.5488281.1533203.4414062,0,.9003906-.3242188,1.1435547-.8105469v-3.1777344l.6933594-.1171875v3.2685547c0,.5664062.0810547.7919922.3066406.9990234l-.4501953.4775391Z"/><path d="M227.8476612,31.0480193v-3.0341797c0-.4765625-.0361328-.59375-.1621094-.7470703-.0996094-.1171875-.2880859-.1884766-.4951172-.1884766-.3603516,0-.9189453.2880859-1.2431641.6298828v3.3398438h-.6835938v-3.4570312c0-.5673828-.1347656-.8818359-.1708984-.9453125l.6835938-.1894531c.0361328.0634766.1621094.3789062.1621094.703125.46875-.46875.9365234-.6933594,1.4140625-.6933594.4853516,0,.9179688.2607422,1.0976562.6572266.0722656.1621094.1083984.3417969.1083984.5214844v3.4033203h-.7109375Z"/><path d="M233.1123096,31.0480193c-.0185547-.0449219-.0898438-.2519531-.0986328-.4589844-.3242188.3691406-.6669922.5224609-1.1884766.5224609-1.1621094,0-1.828125-.8378906-1.828125-2.2695312,0-.9541016.3154297-1.65625.9277344-2.0791016.2880859-.1982422.5400391-.2792969.8642578-.2792969.5039062,0,.9453125.2070312,1.2148438.5673828,0-.0722656-.0087891-.4052734-.0087891-.6933594v-1.8818359l.7021484.1171875v5.0058594c0,.7744141.0361328,1.1884766.1347656,1.4492188h-.7197266ZM232.9863331,27.5275114c-.2255859-.3144531-.5585938-.4677734-1.0898438-.4677734-.3505859,0-.6474609.1621094-.8369141.4677734-.2158203.3427734-.2880859.6669922-.2880859,1.296875,0,.5224609.0361328.9091797.1796875,1.1699219.2070312.3691406.4863281.5224609.9003906.5224609.3691406,0,.5761719-.0810547.8642578-.2880859.1445312-.0986328.2431641-.2607422.2705078-.3242188v-2.3769531Z"/><path d="M238.0166065,31.0480193v-3.0966797c0-.3330078-.0449219-.5400391-.1708984-.6660156-.1074219-.1083984-.296875-.1806641-.5214844-.1806641-.4326172,0-.9189453.2792969-1.3056641.7568359v3.1865234h-.7021484v-5.5273438c0-.5224609-.0898438-.8554688-.1171875-.9189453l.7021484-.1347656c.0273438.0722656.1171875.4501953.1171875,1.0625v1.0439453c0,.2519531-.0185547.5498047-.0273438.6123047.4052734-.3779297.9189453-.7109375,1.4951172-.7109375.5400391,0,1.0253906.296875,1.1523438.7109375.0537109.1806641.0712891.3242188.0712891.6484375v3.2138672h-.6933594Z"/><path d="M240.9589893,28.9230193v.1083984c0,.4228516.0537109.7470703.2070312.9814453.2519531.3867188.6660156.5488281,1.1162109.5488281.4326172,0,.7832031-.1347656,1.0986328-.4228516l.2695312.4501953c-.3955078.3603516-.9355469.5576172-1.5117188.5576172-1.2431641,0-1.9902344-.8994141-1.9902344-2.3857422,0-.7558594.1621094-1.2421875.5400391-1.6923828.3603516-.4228516.8017578-.6210938,1.3417969-.6210938.4863281,0,.9091797.1708984,1.2148438.4863281.3876953.3964844.5136719.8193359.5136719,1.890625v.0986328h-2.7998047ZM242.8046925,27.3927458c-.1533203-.2431641-.46875-.3955078-.8105469-.3955078-.6386719,0-.9990234.4677734-1.0351562,1.3945312h2.0527344c-.0087891-.4853516-.0722656-.7832031-.2070312-.9990234Z"/><path d="M245.4853565,25.7277068c-.3056641,0-.5488281-.2431641-.5488281-.5400391,0-.3066406.2431641-.5585938.5488281-.5585938s.5488281.2431641.5488281.5488281c0,.3066406-.2431641.5498047-.5488281.5498047ZM245.1074268,31.0480193v-4.4648438l.7285156-.1171875v4.5820312h-.7285156Z"/><path d="M249.1757862,27.0958708h-.9355469v2.8896484c0,.4951172.1347656.6660156.5761719.6660156.1972656,0,.3144531-.0263672.4404297-.0898438l.0996094.4501953c-.2255859.1171875-.4775391.1806641-.7919922.1806641-.234375,0-.4150391-.0458984-.5859375-.1269531-.3144531-.1523438-.4316539-.4404297-.4316539-.890625v-3.0791016h-.5849477v-.53125h.5849477c0-.3867188.0537242-.9902344.0722789-1.1337891l.7373047-.1621094c-.0175781.1435547-.0898438.7646484-.0898438,1.2958984h1.1259766l-.2167969.53125Z"/><path d="M251.2099659,31.7140349c-.1806641.234375-.4775391.46875-.7568359.6210938l-.2519531-.3955078c.3515625-.1708984.5585938-.4501953.6035156-.8017578-.0273438.0087891-.0810547.0087891-.0996094.0087891-.2695312,0-.4951172-.2607422-.4951172-.5761719,0-.359375.2792969-.6474609.6308594-.6474609.4140625,0,.7109375.359375.7109375.8642578,0,.3144531-.1259766.6386719-.3417969.9267578Z"/><path d="M159.32813,41.0480193l-.5849609-1.8994141h-2.3046875l-.5947266,1.8994141h-.7470703l2.0615234-6.1757812h.9638672l2.0429688,6.1757812h-.8369141ZM157.6084034,35.5206755l-.9716797,3.0244141h1.9169922l-.9453125-3.0244141Z"/><path d="M163.0175831,37.2394255c-.0449219-.0175781-.1259766-.0351562-.1982422-.0351562-.2695312,0-.5400391.1162109-.7470703.3232422-.2070312.2080078-.2607422.3427734-.2607422.7119141v2.8085938h-.7021484v-3.4570312c0-.5849609-.1259766-.8916016-.1533203-.9541016l.7021484-.1894531c.0361328.0722656.1708984.3964844.1445312.7294922.3242188-.4589844.8007812-.7470703,1.2597656-.7470703.1083984,0,.2167969.0361328.2431641.0449219l-.2880859.7646484Z"/><path d="M165.9521534,41.1564177c-.46875,0-.9814453-.2617188-1.2333984-.5947266-.0185547.1894531-.0361328.3066406-.1259766.4863281h-.7021484c.0986328-.2158203.1347656-.5126953.1347656-1.1162109v-4.4111328c0-.5224609-.0898438-.8554688-.1171875-.9189453l.7021484-.1347656c.0273438.0722656.1171875.4501953.1171875,1.0625v1.0439453c0,.1982422-.0185547.4414062-.0185547.4951172.4414062-.4316406.8105469-.6025391,1.2880859-.6025391,1.0712891,0,1.7373047.8730469,1.7373047,2.2773438,0,1.4404297-.7109375,2.4130859-1.7822266,2.4130859ZM166.6904346,37.4923552c-.171875-.2431641-.4951172-.3876953-.8466797-.3876953-.4414062,0-.8818359.2519531-1.125.5849609v2.3046875c.2333984.3066406.6835938.5410156,1.1074219.5410156.3056641,0,.6474609-.1621094.8095703-.3964844.1621094-.2431641.3154297-.6845703.3154297-1.4404297,0-.5947266-.0722656-.9453125-.2607422-1.2060547Z"/><path d="M169.7128956,38.9230193v.1083984c0,.4228516.0537109.7470703.2070312.9814453.2519419.3867188.6660156.5488281,1.1162109.5488281.4326172,0,.7832031-.1347656,1.0986328-.4228516l.2695312.4501953c-.3955078.3603516-.9355469.5576172-1.5117188.5576172-1.2431641,0-1.9902344-.8994141-1.9902344-2.3857422,0-.7558594.1621094-1.2421875.5400391-1.6923828.3603516-.4228516.8017578-.6210938,1.3417969-.6210938.4863281,0,.9091797.1708984,1.2148438.4863281.3876953.3964844.5136719.8193359.5136719,1.890625v.0986328h-2.7998047ZM171.5585987,37.3927458c-.1533203-.2431641-.46875-.3955078-.8105469-.3955078-.6386719,0-.9990234.4677734-1.0351562,1.3945312h2.0527344c-.0087891-.4853516-.0722656-.7832031-.2070312-.9990234Z"/><path d="M174.2392628,35.7277068c-.3056641,0-.5488281-.2431641-.5488281-.5400391,0-.3066406.2431641-.5585938.5488281-.5585938s.5488281.2431641.5488281.5488281c0,.3066406-.2431641.5498047-.5488281.5498047ZM173.8613331,41.0480193v-4.4648438l.7285156-.1171875v4.5820312h-.7285156Z"/><path d="M177.9296925,37.0958708h-.9355469v2.8896484c0,.4951172.1347656.6660156.5761719.6660156.1972656,0,.3144531-.0263672.4404297-.0898438l.0996094.4501953c-.2255859.1171875-.4775391.1806641-.7919922.1806641-.234375,0-.4150391-.0458984-.5859375-.1269531-.3144531-.1523438-.4316406-.4404297-.4316406-.890625v-3.0791016h-.5849609v-.53125h.5849609c0-.3867188.0537109-.9902344.0722656-1.1337891l.7373047-.1621094c-.0175781.1435547-.0898438.7646484-.0898438,1.2958984h1.1259766l-.2167969.53125Z"/><path d="M184.321294,41.2374724c-.2978516-.2431641-.4238281-.4238281-.4863281-.7207031-.3427734.4589844-.8105469.6845703-1.4228516.6845703-.5673828,0-.9902459-.2431641-1.1787109-.6396484-.0810547-.1708984-.1171875-.4052734-.1171875-.6660156v-3.2949219l.6933594-.1347656v3.2226562c0,.4228516.0625.6123047.2695312.7558594.1445312.0996094.3515625.1533203.5488281.1533203.4414062,0,.9003906-.3242188,1.1435547-.8105469v-3.1777344l.6933594-.1171875v3.2685547c0,.5664062.0810547.7919922.3066406.9990234l-.4501953.4775391Z"/><path d="M188.6679737,41.0480193v-3.0341797c0-.4765625-.0361328-.59375-.1621094-.7470703-.0996094-.1171875-.2880859-.1884766-.4951172-.1884766-.3603516,0-.9189453.2880859-1.2431641.6298828v3.3398438h-.6835938v-3.4570312c0-.5673828-.1347656-.8818359-.1708984-.9453125l.6835938-.1894531c.0361328.0634766.1621094.3789062.1621094.703125.46875-.46875.9365234-.6933594,1.4140625-.6933594.4853516,0,.9179688.2607422,1.0976562.6572266.0722656.1621094.1083984.3417969.1083984.5214844v3.4033203h-.7109375Z"/><path d="M193.9326221,41.0480193c-.0185547-.0449219-.0898438-.2519531-.0986328-.4589844-.3242188.3691406-.6669922.5224609-1.1884766.5224609-1.1621094,0-1.828125-.8378906-1.828125-2.2695312,0-.9541016.3154297-1.65625.9277344-2.0791016.2880859-.1982422.5400391-.2792969.8642578-.2792969.5039062,0,.9453125.2070312,1.2148438.5673828,0-.0722656-.0087891-.4052734-.0087891-.6933594v-1.8818359l.7021484.1171875v5.0058594c0,.7744141.0361328,1.1884766.1347656,1.4492188h-.7197266ZM193.8066456,37.5275114c-.2255859-.3144531-.5585938-.4677734-1.0898438-.4677734-.3505859,0-.6474609.1621094-.8369141.4677734-.2158203.3427734-.2880859.6669922-.2880859,1.296875,0,.5224609.0361328.9091797.1796875,1.1699219.2070312.3691406.4863281.5224609.9003788.5224609.3691525,0,.5761837-.0810547.8642697-.2880859.1445312-.0986328.2431641-.2607422.2705078-.3242188v-2.3769531Z"/><path d="M201.3398487,35.4845427h-2.3857422v2.0253906h1.9804688v.6035156h-1.9804688v2.9345703h-.7470703v-6.1757812h3.25l-.1171875.6123047Z"/><path d="M205.1191456,41.2189177c-.3056641-.0986328-.5302734-.3417969-.6113281-.6572266-.4326172.4326172-.7832031.6035156-1.296875.6035156-1.1074219,0-1.4404297-.6757812-1.4404297-1.2783203,0-1.0175781.8730469-1.6113281,2.3769531-1.6113281.0986328,0,.1708984,0,.3154297.0087891v-.3154297c0-.3955078-.0185547-.5576172-.1445312-.7021484-.1435547-.1621094-.3242188-.2431641-.6035156-.2431641-.5039062,0-1.1425781.2705078-1.4306641.53125l-.3515625-.5039062c.5947266-.3964844,1.2333984-.6035156,1.8818359-.6035156.6210938,0,1.0527344.2431641,1.2421875.7021484.0986328.2431641.1083984.5859375.0986328.9902344l-.0361328,1.4765625c-.0175781.7294922.0273438.9189453.3603516,1.0986328l-.3603516.5039062ZM204.093755,38.7521208c-1.1347656,0-1.5400391.3876953-1.5400391,1.0712891,0,.53125.2607422.8193359.7744141.8193359.4589844,0,.8818359-.2792969,1.0888672-.7021484l.0273438-1.1699219c-.0898438-.0097656-.2519531-.0185547-.3505859-.0185547Z"/><path d="M211.7255909,41.0480193v-3.3125c0-.4326172-.1972656-.6572266-.5761719-.6572266-.4052734,0-.7197266.2607422-1.1884766.6923828v3.2773438h-.7109375v-3.1865234c0-.2705078-.0263672-.4501953-.1259766-.5761719-.1083984-.1259766-.2519531-.1806641-.4589844-.1806641-.3417969,0-.6748047.1708984-1.1435547.5947266v3.3486328h-.6748047v-3.4746094c0-.5761719-.1259766-.8916016-.1621094-.9550781l.6835938-.1621094c.0361328.0722656.1621094.3876953.1621094.6669922.2978516-.3330078.8466797-.6757812,1.3056641-.6757812.4414062,0,.8828125.2705078,1.0449219.7470703.4316406-.4589844.9804688-.7470703,1.4394531-.7470703.6669922,0,1.1259766.5039062,1.1259766,1.2158203v3.3847656h-.7207031Z"/><path d="M214.5322315,35.7277068c-.3056641,0-.5488281-.2431641-.5488281-.5400391,0-.3066406.2431641-.5585938.5488281-.5585938s.5488281.2431641.5488281.5488281c0,.3066406-.2431641.5498047-.5488281.5498047ZM214.1543018,41.0480193v-4.4648438l.7285156-.1171875v4.5820312h-.7285156Z"/><path d="M217.2959034,41.137863c-.2158203,0-.3964844-.0625-.53125-.1884766-.1435547-.1259766-.2158203-.3154297-.2158203-.6396484v-4.7529297c0-.5224609-.0898438-.8554688-.1083984-.9189453l.7021484-.1347656c.0273438.0722656.1171875.4501953.1171875,1.0625v4.5820312c0,.3515625.0537109.4501953.2519531.4501953.0185547,0,.0546875-.0087891.0898438-.0175781l.1445312.4589844c-.1796875.0810547-.2607422.0986328-.4501953.0986328Z"/><path d="M219.3476612,35.7277068c-.3056641,0-.5488281-.2431641-.5488281-.5400391,0-.3066406.2431641-.5585938.5488281-.5585938s.5488281.2431641.5488281.5488281c0,.3066406-.2431641.5498047-.5488281.5498047ZM218.9697315,41.0480193v-4.4648438l.7294922-.1171875v4.5820312h-.7294922Z"/><path d="M221.9482471,38.9230193v.1083984c0,.4228516.0537109.7470703.2070312.9814453.2519531.3867188.6660156.5488281,1.1162109.5488281.4326172,0,.7832031-.1347656,1.0986328-.4228516l.2695312.4501953c-.3955078.3603516-.9355469.5576172-1.5117188.5576172-1.2431641,0-1.9902344-.8994141-1.9902344-2.3857422,0-.7558594.1621094-1.2421875.5400391-1.6923828.3603516-.4228516.8017578-.6210938,1.3417969-.6210938.4863281,0,.9091797.1708984,1.2148438.4863281.3876953.3964844.5136719.8193359.5136719,1.890625v.0986328h-2.7998047ZM223.7939503,37.3927458c-.1533203-.2431641-.46875-.3955078-.8105469-.3955078-.6386719,0-.9990234.4677734-1.0351562,1.3945312h2.0527344c-.0087891-.4853516-.0722656-.7832031-.2070312-.9990234Z"/><g id="c"><polygon points="14.1732283 24.4922636 24.5632508 24.4922636 24.5632508 26.572268 20.473242 26.572268 20.473242 41.0222976 18.253236 41.0222976 18.253236 26.572268 14.1732283 26.572268 14.1732283 24.4922636"/><path d="M25.1932513,41.0222976v-16.530034h2.0800044v6.1800135c.6400008-.7100006,1.7000044-1.2300022,2.9000058-1.2300022,2.6200064,0,4.7000089,1.1300016,4.7000089,4.9600097v6.6100147h-2.0800063v-6.6100147c0-2.3100044-1.2700032-2.9700056-2.7600061-2.9700056-1.5100034,0-2.7600061,1.2300041-2.7600061,2.9700056v6.6100147l-2.0800005.0099983h0Z"/><path d="M46.2032963,29.6822752v6.6100128c0,2.9700075-2.0800063,4.9600097-4.8400105,4.9600097s-4.8400105-1.9800038-4.8400105-4.9600097v-6.6100147h2.0800063v6.6100147c0,1.7500037,1.2700032,2.9700075,2.7600042,2.9700075,1.4900049,0,2.7600042-1.2300022,2.7600042-2.9700075v-6.6100147l2.0800063.0000019ZM39.4732824,25.5322668c.7800004,0,1.3200025.5700009,1.3200025,1.3200025,0,.7800023-.5400021,1.3200025-1.3200025,1.3200025s-1.3200025-.5400021-1.3200025-1.3200025c0-.7500016.5400021-1.3200025,1.3200025-1.3200025ZM43.2532893,25.5322668c.7800004,0,1.3200025.5700009,1.3200025,1.3200025,0,.7800023-.5400021,1.3200025-1.3200025,1.3200025s-1.3200025-.5400021-1.3200025-1.3200025c0-.7500016.5400021-1.3200025,1.3200025-1.3200025Z"/><path d="M47.8232987,29.6822752h1.9800038v1.300002h.0499993c.7100006-1.110003,1.6800039-1.5300039,3.0700062-1.5300039h.4700022v1.9800038h-.310002c-2.0100026,0-3.1900054,1.2300022-3.1900054,4.3000084v5.2900122h-2.0800024l.0099983-11.3400224h0Z"/><path d="M56.1633166,25.9122667c.8000009,0,1.2500027.6100019,1.2500027,1.2500027s-.4500017,1.2500027-1.2500027,1.2500027-1.2500027-.6100019-1.2500027-1.2500027c-.0099983-.6400008.4400034-1.2500027,1.2500027-1.2500027ZM55.1233135,29.6822752h2.0800063v11.3300241h-2.0800063v-11.3300241Z"/><path d="M59.5533232,41.0222976v-6.6100147c0-2.9700056,2.0800063-4.9600097,4.8400143-4.9600097s4.8400066,1.9800038,4.8400066,4.9600097v6.6100147h-2.0800063v-6.6100147c0-1.7500037-1.2699993-2.9700056-2.760008-2.9700056-1.4900049,0-2.7600042,1.2300041-2.7600042,2.9700056v6.6100147h-2.0800024Z"/><path d="M79.1033679,40.4922977c-.7800004.4199991-1.8900034.7599999-2.6700039.7599999-3.3000101,0-5.8500109-2.4600043-5.8500109-5.7600106,0-3.4000069,2.3100025-6.0400138,5.8500109-6.0400138,3.4500043,0,5.5700116,2.7800066,5.5700116,5.6200109v5.05001c0,4.2500091-2.600004,6.2800122-5.9200108,6.2800122-1.2699993,0-2.5300042-.2599989-3.7300113-.6600013l.5000011-1.8900034c1.0400031.2799994,2.0800063.5600026,3.1400061.5600026,1.8700067,0,3.9400108-.8300036,3.9400108-3.5900078v-5.28001c0-2.5500047-1.650005-4.1100094-3.590004-4.1100094-2.4800086,0-3.6800081,1.9600033-3.6800081,4.1800092s1.650005,3.6600076,3.8000111,3.6600076c.9400044,0,1.8400003-.4500017,2.640005-.9200001l-.0000076,2.1400039Z"/><path d="M86.8833833,37.2822918l-.8500003-1.650005,5.5900082-3.1200056c-.7100006-.7100006-1.3000058-1.0800022-2.5700052-1.0800022-2.1500061,0-3.710007,1.6100021-3.710007,3.9200084s1.5600009,3.9200065,3.710007,3.9200065c2.4600043,0,3.3800045-1.4600022,3.8000111-3.5400085l2.1000029.2599989c-.2399984,3.0000064-2.640005,5.2600095-5.9000141,5.2600095-3.1400061,0-5.8800098-2.410005-5.8800098-5.9000141,0-3.5000075,2.7400037-5.9000122,5.8800098-5.9000122,2.640005,0,4.4100054,1.3900024,5.480015,3.5900059l-7.6500178,4.2400183Z"/><path d="M96.1834062,41.0222976v-6.6100147c0-2.9700056,2.0800063-4.9600097,4.8400143-4.9600097s4.8400066,1.9800038,4.8400066,4.9600097v6.6100147h-2.0800063v-6.6100147c0-1.7500037-1.2699993-2.9700056-2.760008-2.9700056s-2.760008,1.2300041-2.760008,2.9700056v6.6100147h-2.0799986Z"/><polygon points="68.393346 15.3522438 65.0833338 15.3522438 65.0833338 18.1622502 67.8333397 18.1622502 67.8333397 19.0022522 65.0833338 19.0022522 65.0833338 23.0722605 64.0433307 23.0722605 64.0433307 14.5022426 68.5533424 14.5022426 68.393346 15.3522438"/><path d="M71.8333482,17.7822503c-.0599977-.0300008-.1699985-.0499993-.2799994-.0499993-.3799981,0-.7500016.1600002-1.0400031.4500017s-.3600014.4800006-.3600014.9900019v3.9000079h-.9800054v-4.8000095c0-.9100018-.2099995-1.3200025-.2099995-1.3200025l.9800054-.2600008s.2399984.4900008.1999974,1.0100024c.4499979-.6400008,1.110003-1.0400031,1.7500037-1.0400031.160004,0,.3399971.0599996.3399971.0599996l-.3999947,1.0600017Z"/><path d="M73.6133584,20.1222535v.1499999c0,.5900014.080002,1.0400031.2900015,1.3600035.3499992.5400021.9200001.7600018,1.5500064.7600018.5999998,0,1.0899987-.1900009,1.530002-.5900014l.3799981.6200022c-.5500042.5000011-1.3000058.7700021-2.1000029.7700021-1.7200049,0-2.760008-1.2500027-2.760008-3.3100065,0-1.0500015.2200017-1.720003.7500016-2.3500054.5000011-.5900014,1.110003-.8600024,1.8600046-.8600024.6699996,0,1.2600048.2400003,1.690006.6700015.5400021.5500004.7100006,1.1400018.7100006,2.6200064v.1399997h-3.9000098v.0199986ZM76.1733614,18.00225c-.2099995-.3400009-.6500029-.5500004-1.1200051-.5500004-.8900013,0-1.3900024.650001-1.4400055,1.9400047h2.8500045c-.0199967-.6800037-.0999911-1.0900044-.2899939-1.3900043Z"/><path d="M79.3933695,15.6822445c-.4199991,0-.7600038-.3400009-.7600038-.7500016,0-.420001.3399971-.7700011.7600038-.7700011.4199991,0,.7600038.3400009.7600038.7600018s-.3300025.7600009-.7600038.7600009ZM78.8733641,23.0722605v-6.2000121l1.0100043-.1600002v6.3600142l-1.0100043-.0000019Z"/><path d="M83.5433722,23.2622615c-.7900026,0-1.650005-.2400003-2.2900058-.6200022l.3799981-.7300011c.6400008.3900002,1.2900037.5900014,1.9700054.5900014.7600038,0,1.2600048-.4100007,1.2600048-1.070002,0-.5600007-.3099982-.880001-1.030001-1.0300029l-.7800004-.1600002c-1.0199988-.2099995-1.570003-.8500022-1.570003-1.7100027,0-1.1200032.9100056-1.9100039,2.2100038-1.9100039.6500029,0,1.3700057.2000012,1.9000056.5000011l-.3600014.7200008c-.5500042-.2600008-1.0100043-.4500017-1.5600009-.4500017-.7100006,0-1.1700007.4100007-1.1700007,1.0200026,0,.4800006.2399984.7600018.9000034.9000015l.8200014.1700004c1.1200051.2400003,1.6600072.8100012,1.6600072,1.7400035.0099945,1.2100036-.9400121,2.0400053-2.3400166,2.0400053Z"/><path d="M89.6533858,17.5822491h-1.3000058v4.0100088c0,.690002.1900028.920002.8000048.920002.2799994,0,.4400034-.040001.6100019-.1200011l.1399997.6200022c-.3099982.1600002-.6600051.2500005-1.1000008.2500005-.3300025,0-.5800031-.0599996-.8099993-.1700004-.4400034-.2099995-.5999998-.6100019-.5999998-1.2400024v-4.2700096h-.8099993v-.7400013h.8099993c0-.6000017.0999987-1.5800033.0999987-1.5800033l1.030001-.2200007s-.120003.9700023-.120003,1.800004h1.5500064l-.3000037.7400013Z"/><path d="M95.2333996,23.3122608c-.4300012-.1399997-.7399994-.4800006-.8500003-.9100018-.5999998.6000017-1.0899987.8400019-1.8000069.8400019-1.5400042,0-2.0000043-.9400025-2.0000043-1.7800045,0-1.4100029,1.2100017-2.2400045,3.3000101-2.2400045.2600027,0,.4400034.0100003.4400034.0100003v-.4400015c0-.5500004-.0299988-.7800023-.1999974-.9800016-.1999974-.2199998-.4499979-.3400009-.8399981-.3400009-.6999984,0-1.5899997.3700016-1.9900021.7400013l-.4899989-.7000023c.8300036-.5500004,1.7100027-.8400019,2.6100062-.8400019.8600024,0,1.4600022.3400009,1.7200049.9700014.1399997.3400009.1500018.8100012.1399997,1.3800021l-.0500032,2.0500036c-.0299988,1.0100024.040001,1.2700032.5000011,1.5200037l-.4900142.7200047ZM93.8033962,19.8822532c-1.570003,0-2.1400039.5400021-2.1400039,1.4900029,0,.7400013.3600014,1.1400018,1.070002,1.1400018.6400008,0,1.230006-.3900002,1.5100054-.9800016l.040001-1.6200043c-.1500018-.0099983-.3000037-.0299988-.4800044-.0299988Z"/><path d="M101.4734107,23.3122608c-.4300012-.1399997-.7399994-.4800006-.8500003-.9100018-.5999998.6000017-1.0899987.8400019-1.8000069.8400019-1.5400042,0-2.0000043-.9400025-2.0000043-1.7800045,0-1.4100029,1.2100017-2.2400045,3.3000101-2.2400045.2600027,0,.4400034.0100003.4400034.0100003v-.4400015c0-.5500004-.0299988-.7800023-.1999974-.9800016-.1999974-.2199998-.4499979-.3400009-.8399981-.3400009-.6999984,0-1.5899997.3700016-1.9900021.7400013l-.4899989-.7000023c.8300036-.5500004,1.7100027-.8400019,2.6100062-.8400019.8600024,0,1.4600022.3400009,1.7200049.9700014.1399997.3400009.1500018.8100012.1399997,1.3800021l-.0500032,2.0500036c-.0299988,1.0100024.040001,1.2700032.5000011,1.5200037l-.4900142.7200047ZM100.0434074,19.8822532c-1.570003,0-2.1400039.5400021-2.1400039,1.4900029,0,.7400013.3600014,1.1400018,1.070002,1.1400018.6400008,0,1.230006-.3900002,1.5100054-.9800016l.040001-1.6200043c-.1500018-.0099983-.3000037-.0299988-.4800044-.0299988Z"/><path d="M105.7534262,17.5822491h-1.3000058v4.0100088c0,.690002.1900028.920002.8000048.920002.2799994,0,.4400034-.040001.6100019-.1200011l.1399997.6200022c-.3099982.1600002-.6600051.2500005-1.1000008.2500005-.3300025,0-.5800031-.0599996-.8099993-.1700004-.4400034-.2099995-.5999998-.6100019-.5999998-1.2400024v-4.2700096h-.8099993v-.7400013h.8099993c0-.6000017.0999987-1.5800033.0999987-1.5800033l1.030001-.2200007s-.120003.9700023-.120003,1.800004h1.5600009l-.3099982.7400013Z"/><path d="M139.8668897,38.9823425c.8056035-1.8301.8857-3.4824.9521-5.4219V14.8187425h-27.5556993v18.7456c.0625,1.9356.1465,3.5918.9502029,5.418,2.3798971,5.4004,7.1308969,8.1309,12.8193968,8.0586,5.6893999.0723,10.4540997-2.6602,12.8339997-8.0586h0Z" fill="#0089c1"/><path d="M139.8668897,38.9823425c.8056035-1.8301.8857-3.4824.9521-5.4219V14.8187425h-27.5556993v18.7456c.0625,1.9356.1465,3.5918.9502029,5.418,2.3798971,5.4004,7.1308969,8.1309,12.8193968,8.0586,5.6893999.0723,10.4540997-2.6602,12.8339997-8.0586h0ZM140.2271897,39.1424425c-2.4462999,5.5547-7.3583998,8.3692-13.1903997,8.295-5.8378999.0742-10.7363997-2.7383-13.1855997-8.295-.8291-1.8808-.9189-3.5761-.9843-5.5722V14.4222425h28.3466029v19.148c-.0664036,1.9961-.1543036,3.6914-.9863035,5.5722h0Z"/><path d="M135.7886898,18.6703425l-.5761-1.0176.5761-1.0156h-1.1513l-.5772-1.0156-.5771,1.0156h-1.1534l.5762,1.0156-.5762,1.0176h1.1534l.5771,1.0156.5772-1.0156h1.1513ZM136.0015898,18.7953425h-1.2939l-.6475,1.1406-.6504-1.1406h-1.2929l.6464-1.1426-.6464-1.1406h1.2929l.6504-1.1406.6475,1.1406h1.2939l-.6474,1.1406.6474,1.1426h0Z"/><polygon points="135.7886898 18.6703425 134.6373898 18.6703425 134.0601899 19.6859425 133.4830899 18.6703425 132.3296899 18.6703425 132.9058899 17.6527425 132.3296899 16.6371425 133.4830899 16.6371425 134.0601899 15.6215425 134.6373898 16.6371425 135.7886898 16.6371425 135.2125898 17.6527425 135.7886898 18.6703425 135.7886898 18.6703425" fill="#ededec"/><path d="M139.7095897,24.5350425l-.5780965-1.0156.5780965-1.0171h-1.1552l-.5752-1.0156-.5762,1.0156h-1.1553l.5781,1.0171-.5781,1.0156h1.1553l.5762,1.0176.5752-1.0176h1.1552ZM139.9214932,24.6600425h-1.2959035l-.6464,1.1387-.6465-1.1387h-1.2949l.6474-1.1406-.6474-1.1421h1.2949l.6465-1.1387.6464,1.1387h1.2959035l-.6474035,1.1421.6474035,1.1406h0Z"/><polygon points="139.7095897 24.5350425 138.5543897 24.5350425 137.9791898 25.5526425 137.4029898 24.5350425 136.2476898 24.5350425 136.8257898 23.5194425 136.2476898 22.5023425 137.4029898 22.5023425 137.9791898 21.4867425 138.5543897 22.5023425 139.7095897 22.5023425 139.1314932 23.5194425 139.7095897 24.5350425 139.7095897 24.5350425" fill="#ededec"/><path d="M135.5171898,30.3065425l-.5752-1.0176.5752-1.0156h-1.1513l-.5772-1.0137-.5761,1.0137h-1.1524l.5742,1.0156-.5742,1.0176h1.1524l.5761,1.0156.5772-1.0156h1.1513ZM135.7300898,30.4315425h-1.2949l-.6465,1.1406-.6474-1.1406h-1.295l.6475-1.1426-.6475-1.1386h1.295l.6474-1.1407.6465,1.1407h1.2949l-.6465,1.1386.6465,1.1426h0Z"/><polygon points="135.5171898 30.3065425 134.3658898 30.3065425 133.7886899 31.3221425 133.2125899 30.3065425 132.0601899 30.3065425 132.6343899 29.2889425 132.0601899 28.2733425 133.2125899 28.2733425 133.7886899 27.2596425 134.3658898 28.2733425 135.5171898 28.2733425 134.9419898 29.2889425 135.5171898 30.3065425 135.5171898 30.3065425" fill="#ededec"/><path d="M139.5679897,36.4237425l-.5771-1.0156.5771-1.0157h-1.1552l-.5752-1.0175-.5782,1.0175h-1.1543l.5762,1.0157-.5762,1.0156h1.1543l.5782,1.0176.5752-1.0176h1.1552ZM139.7789897,36.5487425h-1.295l-.6484,1.1406-.6465-1.1406h-1.2939l.6474-1.1406-.6474-1.1407h1.2939l.6465-1.1425.6484,1.1425h1.295l-.6474965,1.1407.6474965,1.1406h0Z"/><polygon points="139.5679897 36.4237425 138.4127897 36.4237425 137.8375898 37.4413425 137.2593898 36.4237425 136.1050898 36.4237425 136.6812898 35.4081425 136.1050898 34.3924425 137.2593898 34.3924425 137.8375898 33.3749425 138.4127897 34.3924425 139.5679897 34.3924425 138.9908897 35.4081425 139.5679897 36.4237425 139.5679897 36.4237425" fill="#ededec"/><path d="M128.44499,44.9960425l-.5772-1.0176.5772-1.0156h-1.1533l-.5761968-1.0176-.5781032,1.0176h-1.1514l.5762,1.0156-.5762,1.0176h1.1514l.5781032,1.0156.5761968-1.0156h1.1533ZM128.65789,45.1210425h-1.2959l-.6464968,1.1386-.6494032-1.1386h-1.293l.6465-1.1426-.6465-1.1387h1.293l.6494032-1.1406.6464968,1.1406h1.2959l-.6493967,1.1387.6493967,1.1426h0Z"/><polygon points="128.44499 44.9960425 127.29169 44.9960425 126.7154932 46.0116425 126.1373901 44.9960425 124.9859901 44.9960425 125.5621901 43.9784425 124.9859901 42.9628425 126.1373901 42.9628425 126.7154932 41.9452425 127.29169 42.9628425 128.44499 42.9628425 127.86779 43.9784425 128.44499 44.9960425 128.44499 44.9960425" fill="#ededec"/><path d="M118.7759902,38.4178425l-.5771-1.0175.5771-1.0137h-1.1523l-.5791-1.0176-.5762,1.0176h-1.1543l.5781,1.0137-.5781,1.0175h1.1543l.5762,1.0157.5791-1.0157h1.1523ZM118.9888902,38.5428425h-1.2978l-.6465,1.1387-.6445-1.1387h-1.2979l.6494-1.1425-.6494-1.1387h1.2979l.6445-1.1406.6465,1.1406h1.2978l-.649397,1.1387.649397,1.1425h0Z"/><polygon points="118.7759902 38.4178425 117.6236903 38.4178425 117.0445903 39.4335425 116.4683903 38.4178425 115.3140903 38.4178425 115.8921903 37.4003425 115.3140903 36.3866425 116.4683903 36.3866425 117.0445903 35.3690425 117.6236903 36.3866425 118.7759902 36.3866425 118.1988903 37.4003425 118.7759902 38.4178425 118.7759902 38.4178425" fill="#ededec"/><path d="M117.5689903,28.5702425l-.5762-1.0156.5762-1.0157h-1.1543l-.5761971-1.0156-.5752029,1.0156h-1.1543l.5762,1.0157-.5762,1.0156h1.1543l.5752029,1.0156.5761971-1.0156h1.1543ZM117.7818903,28.6932425h-1.2969l-.6464971,1.1426-.6484029-1.1426h-1.294l.6475-1.1386-.6475-1.1407h1.294l.6484029-1.1406.6464971,1.1406h1.2969l-.6465,1.1407.6465,1.1386h0Z"/><polygon points="117.5689903 28.5702425 116.4146903 28.5702425 115.8384932 29.5858425 115.2632903 28.5702425 114.1089904 28.5702425 114.6851903 27.5546425 114.1089904 26.5389425 115.2632903 26.5389425 115.8384932 25.5233425 116.4146903 26.5389425 117.5689903 26.5389425 116.9927903 27.5546425 117.5689903 28.5702425 117.5689903 28.5702425" fill="#ededec"/><path d="M122.1177902,18.5707425l-.5771-1.0196.5771-1.0156h-1.1552l-.5762-1.0156-.5752,1.0156h-1.1533l.5771,1.0156-.5771,1.0196h1.1533l.5752,1.0156.5762-1.0156h1.1552ZM122.3306902,18.6937425h-1.2949l-.6494,1.1406-.6465-1.1406h-1.2949l.646503-1.1426-.646503-1.1386h1.2949l.6465-1.1407.6494,1.1407h1.2949l-.6494,1.1386.6494,1.1426h0Z"/><polygon points="122.1177902 18.5707425 120.9625902 18.5707425 120.3863902 19.5863425 119.8111902 18.5707425 118.6578902 18.5707425 119.2349902 17.5511425 118.6578902 16.5355425 119.8111902 16.5355425 120.3863902 15.5199425 120.9625902 16.5355425 122.1177902 16.5355425 121.5406902 17.5511425 122.1177902 18.5707425 122.1177902 18.5707425" fill="#ededec"/><path d="M131.1031899,21.0218425h-4.3407999c.0156-.0312.0293-.0625.0439-.0976.0772032-.1895.0889-.3692.0547-.6094-.0488-.3476-.1874968-.5391-.6504-.5605-.582-.0274-1.0068.4179-1.54.291-.5645-.1367-.4922-.7168-.46-.9375.0176-.1172.0664-.2071.126-.293,0,0-.041-.0234-.0567-.0332-.0849-.0488-.0761-.1562-.0439-.2832.0801-.2051.2754-.2441.4853-.3594.1661-.0918.4854-.1445.8067-.4316h4.5165999s1.0381-.2285,1.1914.0586c.0801.2617.1768.8789-.499,1.7695.33.3242.3847.7656.3662,1.4863h0Z" fill="#e53517"/><path d="M119.9888902,24.3221425c-.065397-.2871-.04-.5625.0469-.8711,1.3125.4512,1.846703-.1289,2.2577999-.3159.541-.2461,1.3096-.1465,1.7793.041,1.4268.5679,2.0194999.1792,2.1298999-.2461.084-.3222-.0692968-.8418-1.334-.7187-.165,0-.2471-.0137-.3281-.1152-.0801-.1016-.1504-.4532-.1377-.6778.0293-.1015.0683-.1054.1162-.166.6582-.2109,1.0254-.1387,1.54.082.3438.1485.5411.0254.7032-.3125h4.3407999l-.0039.1016c-.0917967.8789.3545,1.3965.3545,1.3965-.2178.0137-.4239-.0274-.6152967-.2188.1650967.793.1913967,1.3296.041,1.9585l-.0078033.0625h-10.8827997Z" fill="#ededec"/><path d="M130.8570899,27.4276425c-.0029.0449-.0108.0879-.0185967.1328-.0888033.5156,0,1.1074.3017967,1.75-.5067967-.1914-1.0742-.1992-1.3565-.1621-.6582.082-1.1502967-.043-1.5878-.5508-.0743.5625-.4756.8125-1.2178.9336-.5069.0801-.8633.2051-1.208.6016-.0928-.7266-.626-.6309-.7656968-1.1895-.3388031.2422-.8867031.459-2.1357031.0664-.7402-.2324-1.2998-.1777-1.8467.0957.2842-.9316.7237-1.082.875-1.6699l-.0332.0078.0332-.0156h8.9599998Z" fill="#ededec" fill-rule="evenodd"/><path d="M125.9459901,31.0389425h5.6239999c.8906.9942,2.0096999,1.6192,3.2225999,1.3926.8203-.1543,1.5108-.7012,1.916-1.3926h1.3292c-.292.7598-.7822965,1.3399-1.503,1.9688-.8379.6133-2.0253999.9472-2.9969999.6582.0419.3418-.003.625-.0948.8672h-13.7518997c-.0137-.086-.0254-.1719-.0332-.2637,1.3711.502,2.014603-.4512,3.0038999-1.3809.9258-.8652,1.8281-1.1738,2.7469999-1.1523.6241.0137,1.6368.2246,1.9122.4238-.3536-.3945-.8594-.791-1.375-1.1211h0Z" fill="#e53517"/><path d="M133.4429899,34.5331425c-.081.2051-.1953.3808-.3164.5312-.7676,1.2871.1914,2.3555,1.1904,2.6016.1749.0254.3877.0566.6124.0762h-6.7304998c.1181-.4004.0371-.8516-.3457-1.459-.3164-.5039-.2744-1.2188-.2744-1.2188-.3711-.1094-.9795-.2304-1.5879.1094-1.3242.7402-1.0596,2.2324-.4239,2.5684h-3.5047999c.0439-.2422.0615-.4571.0361-.6153-.043-.2656-.5215-.5234-.7236-1.123-.7871.1621-1.4971-.3848-1.6836-1.4707h13.7518997Z" fill="#ededec"/><path d="M128.19889,37.7421425h6.7304998c.6162.0546,1.3261034.039,1.6464-.295.0293.4375-.0156.8184-.6172,1.1641.5616.5566.6172.9434.5499034,1.4512-.4522034-.3828-.8497034-.3457-1.3702034-.1094.337.5352.3965.7539.3418,1.4102-.3495966-.3184-.6875-.3555-.8867-.2168h-2.7675999c.0245-.1348.0293-.2872.0118-.4551.0253-.9981-.2803-1.5293-.5752-1.6836-.2871-.1504-1.0957-.3418-1.2325-.9863-.1357.8906-1.3143967,1.2187-2.0663967.1777.1064968-.1484.1855968-.2988.2353968-.457h0Z" fill="#e53517"/><path d="M134.5933898,41.1464425c-.0508.0371-.0918.082-.1221.1367-.1826.3261.1475.4218-.2236.8047-.3681966.0859-.706.5781-.4921966.9179.1913966.3008.0282966.5332-.3828034.2754.1367.3965.0274.916-.4121,1.2031-.6826.3418-.4512-.1093-.6689-.3964-.2207-.3575-.5215-.2325-.5215-.2325-.0616.0489-.1485.3946-.1709.4942-.2129.6094-.7451.7129-.9247967.2441-.0547033-.2519-.3125033-.4609-.4649033-.4922-.3260967-.2871.1153-.5918.2735-.7382-.17-.0489-.1377-.2481-.1114-.4805-.04-.2031-.2343-.3828-.205-.4668.0761-.4043.3086-.4277.8086-.2324.2343-.0411.3574-.0684.5468-.3145.0645-.0801.2442-.3359.3037-.7226h2.7675999Z" fill="#ededec"/><path d="M124.4273901,41.1464425c.0039.2441-.0664.4628-.1826.58-.1494-.1816-.2802969-.2988-.7051-.2988-.3115,0-.7168.209-.7411969.2813.1210969.0449.1718969.1543.166.2832-.1269031.8867-.7217031.4941-.9209031.6113-.1914.1133-.249.4023-.5693.5488-.3721.082-.4922-.0742-.4922-.0742-.3252.334-1.0039.5742-1.1035-.1543-.1875.0449-.419-.1641-.5928-.375-.0918.0918-.238297.2129-.3916-.0547-.012697-.2109.124-.543-.0566-.6562-.2637-.1661-.3887-.334-.253-.6211.0108-.0274.0264-.0508.044-.0703h5.7987999Z" fill="#ededec"/><path d="M122.0621902,37.7421425h3.5047999c.0362.0175.0704.0332.1075032.0449.6327968.1914,1.2274968.2988,1.4784968.1719.0293.4746-.5.9199-.8369,1.0214.291.0821.4834032.0996.6474032.6192-.3017032-.0899-.6181032.0742-.8047032.2109-.246.1836-.5556.3203-.9012968.1367.1620968.4024.247.7325-.0918032,1.2598-.1571968-.6367-.6719-.6875-.9873-.748.1719.2011.2451031.4531.249.6875h-5.7987999c.1533-.168.4531-.0391.5-.3497.1201-.7675.502903-.8769.9492-.457.6123.3438.9785.1387,1.1982-.2441.1133-.2032.628-1.4629.7862-2.3535h0Z" fill="#e53517"/><path d="M114.9849903,31.0389425h8.2538998c-.2607.2715-.5947.7442-.6142,1.0918-.2061-.1621-.1846-.3886-.3008-.8672-.1807.6407-.5625,1.0743-1.0381,1.3809.0713-.3848.042-.7402-.0654-1.0059-.2012.8848-.7276,1.3321-1.1514,1.627.166-.3516.2471-1.0606.083-1.5156-.126.6113-.7148,1.1816-.9033,1.248.0127-.2168.174803-.7383-.2998-1.1582-.6875-.4648-.9795.084-.6211.3399.3828.2714.345703.5351-.0459.5097-.1279-.0644-.2783-.0547-.358397.0723-.204103.3574-.541.4258-.526403-.3379-.0947-.3926-.7285-.168-.6211.1934l.126.1367c.3106.2519.1748.6172-.1992.5293-.1426-.0899-.4795-.0782-.5938.0644-.3574.0899-.3408-.2109-.2021-.5761.0371-.2032-.6016-.42-.4843971.1894.0917971.5-.5742029.7481-.4824029.084.0615-.1231-.1387-.4941-.419-.5938-.1953-.1582-.0664-.5117.1924029-.4726.2480971.0371.4550971.0449.6923971-.0293.2881-.0879.2285-.6426-.1299-.4551-.3838.1992-.7109-.084-.457-.3125.0508-.0332.1113-.084.166-.1426h0Z" fill="#e53517"/><path d="M116.9605903,24.3221425c.1465-.2168.1758-.5117.1162-.789-.0957-.439.1953-1.0366.1924-1.2183-.0156-.6582-.8301-.6641-.7295-.1113.2334.6172-.0469,1.1069-.3545.6992l-.124-.3281c-.4473-.2871-.5546971-.541-.2354-.7403.4385-.3378.0625-.6191-.3115-.4101-.2656.4277-.5547.4629-.6406.2754-.0479-.1094.0771-.2383-.0068-.5039-.0225-.0684-.0918-.1739-.0918-.1739h3.4442999c1.1787.4707,2.8827999,1.334,3.8661999,2.2281-.3916.2304-.9463.582-2.0497999.2011-.0869.3086-.112297.584-.0469.8711h-3.0282999Z" fill="#ededec"/><path d="M116.9605903,24.3221425h3.0282999c.0694.3086.2461.6309.5664,1.0176-.5195.2324-.8779.7656-1.082,1.1231-.0215.039-.049797.0761-.0791.1132-.4424-.2519.1611-.8496-.1123-1.3457-.2197.3711-.4336.6211-.6455.752.1172-.3633.0283-.6602-.1094-.9981-.1709.1641-.354497.5215-.3281.9297-.4502-.3945-.5449-.6113-.4795-1.3691-.3848.2734-.670897.3027-1.125.0566.1631029-.0586.2842-.1582.3662-.2793h0Z" fill="#e53517"/><path d="M122.7906901,19.4437425c.0547.3672.2949.6426.625.8242.8242.4551,1.5117-.0976,2.3134999-.08.3037.0078.7412.1074,1.1494.3984-.003.1055-.0205.2012-.0576.3008-.5557-.3242-.9717-.2598-1.6172-.1914-.3252.0351-.9639.3828-1.6592.3691-.4550969-.0078-.8936-.2129-1.0488-.709-.1221-.3828.0517031-.7383.2949-.9121h0Z" fill="#e53517"/><path d="M124.5484932,15.4496425c.4384968-.2403.7977968-.0274,1.0731968.4375.2774-.293.753-.1074.8233.2871-.6426.2422-.4374968.8672.1513.8672.6807,0,.7354-.7071.1807-.8574-.0194968-.252.1553-.5137.5615032-.5098.0107968-.332.2402968-.627.4228968-.6992.2471032.0996.3916.3672.4541032.6621.418-.0117.6083967.3594.6171967.5547-.6699.1875-.4649.8398.1621.8398.5351,0,.8037033-.6621.1504-.8476.0097-.4219.5205-.6075.7793033-.377.33-.5273.7333967-.5098,1.0907967-.293-.8272.8047-1.0254,1.6367-1.0371,2.1817h-4.4335999c-.0547-.9141-.3955-1.6641-.9960968-2.2461h0Z" fill="#fc0"/><path d="M136.7085898,31.0389425c.3995-.6777.5293-1.4902.252-2.207-.2725-.7051-.6064-1.0137-1.1103-1.4043h1.6621c.0957.1328.1914.2695.2832.4199.2177-.2168.497-.3613.792-.4199h.6142c.3154.0664.6074.2363.8115.5293.4004.5664.3711,1.5859-.6572,1.8867.6572-1.2539-.9023-1.5586-1.0273-.1758-.045.5254-.1407.9727-.291,1.3711h-1.3292Z" fill="#ededec"/><path d="M132.8980899,24.3221425h1.5479c.0918.1387.2001.2754.3242.4004,1.0263034,1.0664,1.9443034,1.6172,2.7421999,2.7051h-1.6621c-.5069-.3887-1.1797-.8555-2.1357966-1.8672-.248-.2656-.5351034-.8535-.8164034-1.2383h0Z" fill="#e53517"/><path d="M132.8980899,24.3221425c-.123-.166-.2441-.2949-.3603-.3418-.3008-.1191-.6045-.1562-1.084.2383.0283-.9453.3642-1.3862,1.2607033-1.3706.2206966-.959.544-1.4101.96-1.7656.0223966-.0215.0477966-.041.0731966-.0606h2.6503999c-.6191.2852-1.3515966.67-1.8818,1.2754-.5497966.625-.5,1.3706-.0703,2.0249h-1.5479Z" fill="#ededec"/><path d="M136.3980898,21.0218425h-2.6503999c.9229-.7461,2.3866999-1.2168,3.2401999-1.8847.459-.3574.462-.6758.3672-.8887-.5332-.3437-.2168-.7949.043-.9043.4902-.209,1.123-.2617,1.6982.1094.4756.3027.9053,1.0683.0821,2.041-.5518.6523-1.9033,1.1309-2.4902999,1.3965-.0947.041-.1923.084-.29.1308h0Z" fill="#e53517"/><path d="M125.7994932,18.1507425c.1376968.1114.1971968.377.5331968.5684-.2735,0-.541-.293-.7998-.0547-.0586-.1855.2588-.2656.2666032-.5137h0Z"/><path d="M129.74479,18.4379425c-.1006.1816.0293.2265.1338.0937.0742-.0957.1914-.3105.5918-.541-.3955.0527-.6836.3769-.7256.4473h0Z"/><path d="M128.16569,32.8163425c.0556.0527.2334.2461.3125.2461.3096,0,.4814-.5684.4961-.6231.0127-.0742.1289-.0644.125.0156-.0147.2149-.1133.4063-.2569.5938-.0848967.1191-.1894.2383-.2978.3516-.3897.4238-.8496.9004-.9033,1.6679-.0049.0821-.1299.0742-.125-.0097.0507-.7227.4179-1.168.8496-1.6465.0371-.125-.4248-.5742-.4863968-.6387-.1796032-.1875-.372-.4219-.5927032-.5625-.0752-.0469-.0069-.1543.0703-.1035.2764032.1855.6396.5371.8086.709h0Z"/><path d="M121.8970902,27.4276425c-1.0625.2129-2.4266999.2129-3.2733999-.3633.3027-.1211.6875-.3242.8496-.6015.2041-.3575.5625-.8907,1.082-1.1231-.3203-.3867-.497-.709-.5664-1.0176h10.8827997c-.0556.5-.0039.9629.3907,1.8672-.2178-.0683-.4414-.1601-.67-.4238.1358.3867.3565.9355.2647,1.6621h-8.9599998Z" fill="#e53517"/><path d="M124.0484932,29.8495425c-.0449031.5683-.457.8535-.6914031,1.0683l-.041.0391c-.0254.0254-.0508.0527-.0772.082h-8.2538998c.0215029-.0254.041-.0527.0586-.082.0293-.043.0508-.0918.0615-.1387-.0361-.4922.2168-.8164.7578-.4941,0,0,.1543.2812.5186029.291.493197-.0664.904297-.3281,1.599597-.8379,1.067403-.7383,1.8018-1.5547,2.2382999-1.9961.0918-.0918.1709-.1679.2373-.2246.4805.0156.9707-.0332,1.4072-.1133l.0332-.0078c-.1513.5879-.5908.7383-.875,1.6699.5469-.2734,1.1065-.3281,1.8467-.0957,1.249.3926,1.7969.1758,2.1357031-.0664.1396968.5586.6728968.4629.7656968,1.1895.3447-.3965.7011-.5215,1.208-.6016.7422-.1211,1.1435-.3711,1.2178-.9336.4375032.5078.9296.6328,1.5878.5508.1612-.0215.4161-.0293.6993.0078l.0029.0117.0068.0235.0039.0195.0039.0156.0069033.0215.0048967.0254.0068.0195.0146.045c.0567033.1894.1407033.4218.2647033.6464.0292967.0547.0595967.1094.0956967.1641.1846.2871.3896.5586.6064.8086l.0694.082h-5.6239999l-.126-.082c-.6533-.4004-1.2969-.6914-1.6416-.7246.0918-.2266-.1298969-.3828-.1298969-.3828h0Z" fill="#ededec"/><path d="M114.7750903,21.0218425s-.0655-.0742-.0782-.1211c-.0732-.2714.1328-.4492.4629-.3164.3379-.0351.5371-.3281.292-.4921-.1465-.0547-.4971-.125-.5332-.2754-.0176-.2891.2637-.1817.4785-.3086.2373-.1387.1455-.3106.4473-.3477.2539-.0273.2656.2598.2275.5293-.0243971.4414.3721.3027.4678.1192.0703-.4571-.2393-.6661.1436-.7657.1582029-.041.2988.3809.5488.502.2822.1347.458-.0742.6025.1269.169.2637,0,.3653-.291.6035-.0078.084-.124.3145.503903.6973.058597.0215.172897.0488.172897.0488h-3.4452999Z" fill="#e53517"/><path d="M118.2232903,42.6542425c.0293.1093.074203.2168.125.3281.0303-.1348.0791-.2422.1445-.3281h.1651c-.1397.123-.2305.3281-.25.5664-.151397-.1953-.2559-.3809-.3057-.5664h.1211ZM119.4625902,42.6542425c.1445.1425.293903.2343.4023.209,0,0,.0664-.0118.0762.0527.0781.5683.5947.5.9707.1543-.043-.125-.0254-.2754.0244-.416h.1338c-.0596.1406-.0772.289-.0342.3886.0957031.0957.3135.0723.4199.0508.2012-.0937.3086-.2988.4346-.4394h.2041c-.1016.0293-.1348.1132-.2373.25l-.0225.0293c.2168.2988.2354.4785.1358.8515.3984-.2402.6582-.5136.6035-1.1308h.1279c.0664.7246-.2715,1.0215-.9375,1.3945.1592031-.5293.2217-.6777-.0156-1.0156-.0625.0644-.1426.1269-.2461.1758-.1748.039-.375.0507-.5176-.0469-.2412.2207-.6826.4219-.9521.2168-.2842.1992-.25.5195-.1797.8515-.667-.2129-.8096-.9472-.6543-1.539-.0742.039-.167.0469-.2588-.0371h.5225ZM129.95279,42.6542425c-.21.164-.3369.3789-.3906.6933-.0098.0645-.0176.1289-.0254.1934.2177033-.1992.4668-.2598.7705-.2754-.0371-.1191-.0087967-.2734.0019-.3789-.0136-.0586-.0664-.1465-.1142-.2324h.1435033c.041.0664.0781967.1406.0956967.2168v.0195c-.0096967.0918-.0644.3418.0411.4023.1074-.0625.2314-.1171.3369-.1171v.125c-.0791,0-.1866.0449-.293.1113-.1533.1445-.5244.4004-.2793.6328.1768.0449.4346033.2656.4932.5312.1425.3633.5957.3575.8076-.2421.0127-.0665.0635-.2793.1221-.418-.3047-.0703-.0508-.7481.3603-.8867l.04.1172c-.1679.0585-.3193.246-.3818.4199-.0322.084-.0742.25.0732033.2285.0117967-.0039.0292967-.0098.0537967-.0156.2265-.041.414.082.5332033.2734.2342967.3086-.0166033.6797.5878966.377.4101034-.2696.5136-.7579.3837-1.1289-.0097-.0293.0342-.0801.0928-.0723.1651.1015.2686034.123.3242.0918.0108-.0645-.0673-.1445-.0585966-.2988.0097966-.1524-.0078034-.2657-.0039034-.3672h.1289034c-.0087034.1269.0078966.2578.0283966.3789.2724.0449.6084.2265.7841.4863.0616-.291.0508-.5859-.0752-.8652h.1407034c.1473966.3593.1288966.7539-.0401034,1.1543-.2128966-.4239-.4863-.5801-.791-.6407.0371034.2539.0235.4082-.375.2344.0781034.3965-.0586.8633-.4726,1.1348-.1924.0976-.4082.1953-.5411.082-.2246.2422-.3544.6289-.25,1.0742-.3544-.2597-.6044-.7226-.6416-1.1172-.2207.375-.6015.5-.8339.2364-.2989.2441-.2989.58-.3575,1.0371-.3935-.5996-.6425-1.1192-.2539-1.75-.2342967-.2656.0371-.5332.2432-.7129-.374.0137-.6279.0859-.8574.3711l-.1240967.1367.0146967-.1836c.0137-.1269.0254-.2559.0439-.3848.0518-.291.1582-.5039.3272-.6718h.1875ZM119.3277902,42.6932425c-.155297.5469-.001,1.1426.3623,1.3438-.0332-.2539-.0039-.5645.251-.752-.0508-.0722-.0918-.1679-.1143-.2929-.1728,0-.3564-.1465-.499-.2989h0ZM131.8082899,43.9081425c-.2597967.5449-.087,1.0761.2451,1.4687-.003-.3828.1396-.666.3301033-.8633-.0108033-.0214-.0176033-.0429-.0245033-.0683-.0293-.1113-.0459-.2285-.1211-.3223-.0918-.1543-.247-.2656-.4296-.2148h0ZM130.22429,44.1698425c-.3047.5078-.1582.9453.0674,1.3262.0488033-.3282.1162-.5918.3662-.7891-.0166-.0293-.0293-.0586-.042-.0898-.0459-.2207-.2578-.4043-.3916-.4473h0Z"/><path d="M121.6138902,39.4589425c-.125.33-.2363.5839-.2861.666-.2295.4121-.6377.6289-1.2792969.2695-.413103-.3867-.746103-.3184-.857403.4102-.059597.3984-.4424.2011-.5518.4375-.1133.2461-.0205.3847.2315.5429.2168.1367.081.4844.0849.6914.1055.1739.1846.127.2637.0489-.0215-.3086.1992-.709.7842-.8125l.0234.1211c-.5371.0957-.7041.4511-.6826.6894.038103.0469.079103.0918.1182.1309h-.5225c-.0283-.0254-.057597-.0586-.084-.1035-.0742.0195-.139597.0546-.1982.1035h-.1651c.0889-.1211.2061-.1993.3428-.2325.0137-.1718.0791-.4609-.0303-.5312-.1181-.0742-.2177-.1523-.2763-.2461-.3516.3594-.396497.6855-.3057,1.0098h-.1211c-.1064-.3711.0078-.7325.375-1.1328-.0244-.0938-.010697-.2012.0488-.3301.0352-.0762.084-.1211.1358-.1485-.3086-.1504-.7344-.1152-1.0469.2051.0947-.6738.7959-1.3301,1.709-1.0898.2021-.2012.4844-.1543.791.1308.5762.3203.9072.127,1.1055-.2246.0439-.0742.1435-.3027.2607-.6054h.1328ZM126.98209,39.4589425c.0146.039.0264032.08.041.121,0,0,.0107.0782-.0771.0801-.5967-.1797-.9161.6114-1.5772.4024.1279.3574.1641.6875-.1514,1.1797-.0517.0605-.1103.0195-.1132-.0196-.1075-.4453-.3868-.5957-.7832-.6758.1992.3301.2578.9297-.0332,1.2247-.0508.0546-.0928-.004-.0928-.004-.1367-.1699-.251-.2773-.6553-.2773-.25,0-.5331969.1367-.6387.2031.0928.0723.1309.1856.126.3028-.0498.3476-.1562.5234-.332.6015.0039.0196.0068.0391.0068.0567h-.1279v-.0196c-.0928.0196-.2031.0196-.3252.0118-.0654-.0059-.1133-.004-.1543.0078h-.2041c.0693-.0743.1455-.1309.2412031-.1368.1298969-.0078.2587969.0254.3915969.0059.1533-.0215.3184031-.1152.3809-.5371.0029-.1074-.0391-.1855-.127-.2188-.0283,0-.0449-.0449-.0371-.0781.0371-.1152.4883-.3242.7998-.3242.4004,0,.5596.1035.7041.2656.2168-.3183.125-.8535-.1102969-1.1328-.0264031-.0234-.0118031-.1035.0584969-.1015.4415031.0859.8086.1679.9903.6582.2412032-.4375.1631-.7247.0166-1.084-.0283-.0664.0264-.1172.0849-.0782.629.3321.919-.457,1.586-.375-.0088-.0214-.0156-.039-.0235-.0585h.1358ZM131.7076899,39.4589425c.1259.291.206.6992.1953,1.2304.043.4239-.0654.877-.332,1.2188-.2032.2617-.3428.2949-.585.3379l-.0332-.0039c-.499-.1954-.6611-.1504-.7246.1992.0117.0547.0625.1289.1103033.2129h-.1435033c-.0214967-.041-.0459-.0801-.0614967-.1192-.0665033.0371-.126.0762-.1807033.1192h-.1875c.0928-.0957.2051-.1719.3389-.2422.0918-.4766.3867-.4824.8779-.293.2129-.0371.3174033-.0644.4922-.2871.247-.3164.3437-.7402.3037-1.1328.0137-.5645-.0781-.9707-.208-1.2402h.1377ZM136.5630898,39.4589425c.042.1972.0372.3945.0079.6113-.0069.0371-.0538.084-.1044966.039-.4082034-.3457-.7627034-.33-1.2364034-.1289.3086.5059.3672.7422.3155,1.3887,0,0-.0323.0781-.1065.041-.2099-.1933-.706-.4687-.916-.0957-.1611.2949.1563.4082-.2197.8106.1689.164.2939.3418.3711034.5293h-.1407034c-.0752-.166-.1922966-.3262-.3622966-.4805-.2734034.0918-.3574034.2793-.375.4805h-.1289034c.003-.086.0157-.166.0743-.2559.1162-.1777.2929-.3184.4746034-.3652.3212966-.3418.0126966-.4414.2001966-.7793.2207-.3985.7177-.2442,1.0117-.0176.0361034-.5488-.0362-.7578-.3428-1.25,0,0-.0254-.0566.0273-.0898.4991-.2266.9043-.2793,1.3457.0468.0167-.1699.0137-.3261-.0253-.4843h.1298ZM120.9361902,42.6542425c.0205-.0625.0527-.1211.0859-.1739l.1055.0664c-.0244.0332-.042.0704-.0576.1075h-.1338ZM119.2398902,40.2655425c-.7168-.1621-1.1816.2246-1.4043.6894.337903-.1835.624-.1777.9883.0313.1172-.0273.223603-.0488.2451-.1992.0332-.2246.0928-.3985.1709-.5215h0Z"/><path d="M115.6343903,31.7850425c-.0254.0996-.0947.1875-.2118971.2246-.25.0762-.4639029.0684-.7168029.0313-.1806-.0274-.2959.2285-.1543.3555.2832.1074.5215.4882.4502.666-.0722.5566.4336.3066.3623-.0899-.1377-.6933.6612-.5058.6055-.1914-.0557.1543-.2305.586.1035.5098.1494-.1543.4922-.1582.6543-.0684.2686.0606.417-.1914.1338-.4238l-.1299-.1387-.0165971-.0254c-.1338029-.4414.629897-.7011.742197-.2246v.0137c-.0088.7109.2451.5977.4141.3066.0996-.1601.2832-.1699.426703-.1015.253897.0117.379897-.125-.006803-.3985-.1729-.123-.2139-.3066-.1514-.4453h.1504c-.0908.0879-.0703.2403.0742.3418.2793.1992.3848.4688.2051.5781.1123.5997-.2422.961-.8916,1.1309.1904-.3652.2598-.5488.083-.8008-.212897.1348-.4365-.0078-.4287-.6035-.075197-.2949-.5635-.1172-.5.1543l.1133.1211c.2529.2109.2422.5352.0176.627-.0293.5097.0185.8085.376903,1.2519-.7158029-.0801-1.2119029-.4863-1.3965029-1.1601-.2832-.0333-.1797-.4493-.0957-.67,0-.0918-.4657971-.3242-.3623.1953.0947.5039-.4794971.7579-.5957.3692-.3379.1992-.4375.5234-.5087971.9883l-.0869029-.086c-.3574-.3535-.3975-1.3691.1201-1.8008-.1289-.2109.0157-.5488.3096-.5039.1699.0235.6689.0801.7822029-.1328h.1288971ZM118.9810902,31.7850425c0,.002.001.0039.0039.0039.3594.3184.396503.6719.3389,1.0957.2207-.1601.6328-.6113.7539-1.0996h.1533c.1211.3946.0811.9356-.0293,1.3067.3496-.2676.7256-.6543.917-1.3067h.2158c.0557.2129.0674.4629.0332.7266.2676-.1895.4971-.4277.669-.7246l.1465-.002c-.2012.3848-.4776.6602-.8272.8848-.0801.0508-.1415969.0215-.1318-.0371.0527-.2832.0517-.5488,0-.7695-.2354.7695-.6807,1.1445-1.0733,1.4199-.0556.0293-.1513.0293-.1367-.043.1367-.291.2129-.832.1338-1.2598-.2002.543-.6914,1.0098-.8799,1.0762-.1064,0-.082-.0625-.082-.0625.0088-.166.0488-.3242.0332-.4941-.0166-.1953-.087897-.4141-.3086-.6114-.0654-.041-.125-.0761-.1826-.1015l.2529-.002h0ZM122.4957901,31.7850425c.0234.0879.0527031.1621.0859.2129.0166-.0683.042-.1387.0703-.2129h.1377c-.0576.1231-.0957.2442-.0996.3496-.0244.0762-.1025.045-.1025.045-.128-.0997-.1836-.2422-.2198-.3926l.128-.002h0ZM126.3570901,31.7850425c.251.0508.4961.1114.6875.1778-.0615-.0606-.1279-.1192-.1943-.1758l.1865-.002c.1211.1094.2295.2207.3291.3321l-.0821.0918c-.2568-.1856-1.2539-.3965-1.8759-.4102-.9003968-.0195-1.7891.2812-2.7021999,1.1367-.8603.8047-1.6025,1.8731-2.9745999,1.4258.0957.8223.6143,1.791,1.6328,1.582,0,0,.0557-.0136.0723.041.1328.4024.3701.5918.6084.9024.1914.2539.1318.5703.0801.8672-.0957.5371-.3194,1.209-.5108,1.7051h-.1328c.1914031-.4922.4229-1.1817.5186-1.7286.0449-.2402.0586-.4453.0361-.5937-.0205-.125-.2051-.3125-.2871-.4043-.1426-.166-.3086-.3711-.4141-.6582-1.1142.1875-1.6610969-.8984-1.7363-1.7988-.0107-.1036.083-.0645.083-.0645.9873.3613,1.5791-.0527,2.242203-.6875.2206969-.2129.4472969-.4473.6952969-.6797.6084-.5664,1.208-.9004,1.8096-1.0566l1.9287-.002h0ZM132.4908899,31.7850425c.6621.4727,1.4404.7461,2.2928999.584.4532-.084.8663-.293,1.212-.582l.1894-.002c-.3808.3516-.8525.6094-1.3808.7071-.9463.1777-1.8038-.1543-2.5234999-.7071h.21ZM137.7261898,31.7850425c-.2832.4395-.6592.8418-1.1513,1.2715-.8233.6016-1.9892999.9453-2.9658999.6953.044.5156-.1113.9531-.4336,1.3477-.7285,1.2344.1788,2.2637,1.1543,2.5058.5909.0899,1.7793.2403,2.2011999-.2011.0332-.0332.1074-.0313.1074.039.0284.4356-.0156.8282-.5781,1.1797.2988.3106.4443034.5723.5029.836h-.1298c-.0606-.2481-.211-.4981-.5166-.8047,0,0-.0508-.0528.0127-.0977.5136-.2949.5986-.6113.5908-.9785-.5156966.375-1.5889.2441-2.2157999.1484-1.0206-.2519-2.0292999-1.3554-1.2325-2.6933.3311-.4063.4707-.8399.4034-1.3574,0,0-.003-.0782.0791-.0684.9472.2812,2.1161999-.0449,2.9413999-.6484.455-.3985.8105-.7715,1.08-1.1719l.1504-.002h0ZM126.84629,39.4589425c-.125-.3028-.246-.334-.5477968-.418-.044.0058-.0586032-.0918,0-.1211.3017968-.0899.7538968-.4707.792-.8731-.3457032.0938-1.2617032-.0976-1.5527032-.25-1.2686-.6699-.3135-3.4882,2.0584999-2.7929l.045.0644s-.0087968.1739.0175.4102c.0293.2363.0957032.5312.2461.7715.4229.6699.5879,1.2812.1329,1.9492.7324.9668,1.8046.6211,1.9326-.1875,0-.0352.0957-.0742.1201033-.0039.0643967.2969.2811967.4941.5292967.6387.2558.1464.5293.2304.6748.3066.1504.0801.2978.2461.4131.5059h-.1377c-.0996-.209-.2237-.3379-.334-.3965-.1454967-.0762-.4199-.1621-.6768-.3086-.206-.1172-.4062-.2813-.5185-.5137-.2861967.793-1.4121.9863-2.1288999-.0039,0,0-.0292968-.0449,0-.0723.4492-.6347.2978-1.1972-.1122968-1.8476-.211-.336-.291-.8106-.2832032-1.2051-2.2949999-.6406-3.0820999,2.2324-1.8243,2.6152.6407.1934,1.2071.291,1.4366.1778,0,0,.083-.0215.0869032.0507.0253968.4375-.375.8399-.711,1.0137l.0332968.0098c.2451.0859.3603.2558.4443.4805h-.1358ZM117.8599903,32.9549425c.126.1719.1797.377.0547.6836.46-.1679.591803-.5175.5303-.8925-.0469.0078-.103497.0097-.168.0058l-.0244-.0078c-.1094-.0547-.2197-.0391-.2744.0508-.0371.0625-.0772.1152-.1182.1601h0ZM116.0718903,33.4198425c.1543.5039.5186029.8887.9834,1-.1992-.3125-.2392-.6484-.2197-1.0586-.042.002-.0918-.0039-.1455-.0156l-.0205-.0078c-.1230971-.0782-.4248-.0606-.5137.0488l-.0332.0215c-.0166.0039-.0341971.0078-.0508.0117h0ZM114.5025904,32.5096425c-.416.3418-.4424,1.1407-.2012,1.5235.084-.3946.2539-.6797.5684-.8516-.002-.043.0029-.0918.0078-.1445l.0078-.0176c.0332-.0723-.1143-.4121-.3828-.5098h0Z"/><path d="M119.2828902,27.3104425c.791.2559,1.7861.2227,2.599603.0625.0907969-.0215.0741969.0781.0741969.0781-.0751969.2969-.2217.4844-.3955.7266-.1465.2031-.3036969.4375-.4375.8106.5234-.2266,1.0703-.2579,1.7627-.0372,1.2353.3887,1.7627.168,2.0839999-.0605.0595-.0391.0918,0,.0957.0371.1211.4961.6045.457.7461,1.0703.3291-.3379.6826-.4531,1.1552-.5293.7354-.1211,1.0987-.3613,1.1661032-.8789,0,0,.0292968-.0801.1092968-.0312.42.4863.8936.6074,1.5342.5273.2608-.0332.7676-.0293,1.2471.1211-.2578-.6016-.333-1.1641-.2461-1.6582.0127-.082.0244-.1602.0293-.2383h.125c-.0077967.084-.0166.1699-.0332.2578-.0869.502,0,1.0821.2969,1.7168,0,0,.0156.0957-.0782.084-.1806-.0664-.3711-.1133-.5508-.1387.0665033.2461.1836.5801.379.8829.3925033.6093.9199,1.2265,1.5449,1.6718h-.21c-.5762-.4414-1.0635-1.0254-1.4403967-1.6035-.2158033-.3379-.3408033-.7129-.4082033-.9707-.2587967-.0273-.4912-.0215-.6406-.0039-.6299.082-1.1221-.0254-1.5586-.4746-.1211.5156-.5528.748-1.2461.8594-.5.082-.8379.2011-1.167.582-.0801.0488-.1094-.0332-.1094-.0332-.0889-.6602-.5664-.6016-.7402-1.0977-.3633.2325-.9385.3985-2.1210999.0254-.7246-.2285-1.2686-.1738-1.8017969.0918-.0986031.0215-.0869031-.0742-.0869031-.0742.1465-.4707.333-.75.499-.9805.1358-.1914.2725-.3652.3467-.5898-.4121.0742-.873.1152-1.3281.1035-.0889.0781-.2012.1914-.3418.3359-.6631.6797-1.334,1.3301-2.1181999,1.8731-.6943.5078-1.1172.7812-1.626.8496-.2363-.0078-.456-.1211-.5742-.3086-.4697-.2715-.6836-.0176-.6504.4434l-.0039.0156c-.0321971.166-.1709.3125-.3047.4023-.2031.1875.0957.3614.3887.209.3027-.1582.4502.1211.3867.3477l-.1288971-.002c.0204971-.041.0292971-.0918.0165971-.1543-.0585971-.3086-.4199.168-.75-.082-.1045-.0801-.1367-.2051-.0674-.3223-.2939-.0625-.665.0059-.8974.2051,0-.5586.2939-1.0293,1.3193-1.0879.125-.2246.3799029-.3047.7666-.0742l.0244.0234s.0078.0157.0254.0371c.1045029.1387.2627.2188.4375029.2227.471697-.0625.872097-.3164,1.564497-.8262.7783-.541,1.4453-1.1836,2.102503-1.8574.095697-.0996.179697-.1836.253897-.2539-.4824-.0293-.957-.1211-1.3613-.3047h.3428ZM135.7994932,27.3104425c.0301966.0254.0594966.0449.0887966.0684.5078.3906.8526.7109,1.1319,1.4316.2832.7324.1504,1.5625-.25,2.2461-.1573.2695-.3535.5156-.585.7285h-.1894c.2675-.2207.4921-.4922.667-.791.3867035-.6582.5078-1.4473.2402-2.1387-.2656-.6894-.5928-.9941-1.0928-1.3789-.0683-.0527-.1396-.1074-.2168-.166h.2061034ZM137.5005898,27.3104425c.1075.1406.208.2832.3077.4375.2168-.1953.4873-.3242.7675-.3828h.626c1.3086.2695,1.5869,2.125.1719,2.541-.084.0176-.0977-.0449-.0693-.0898.6259-1.2012-.8028-1.3848-.9131-.1426-.0733.8652-.2823,1.5195-.6651,2.1113h-.1504c.4004-.5918.6162-1.2461.6914-2.123.1309-1.4727,1.7129-1.1211,1.209.0781,1.1289-.4492.8418-2.0137-.2822-2.25h-.6006c-.2803.0586-.5468965.1953-.7538965.4004-.0586035.0371-.0976035-.0098-.0976035-.0098-.125-.2031-.2588-.3925-.4003965-.5703h.1590965ZM118.1392903,31.7850425c.0879-.1953.3936-.2988.8418,0h-.2529c-.2139-.0957-.3643-.0722-.4385,0h-.1504ZM120.0777902,31.7850425c.0068-.0156.0078-.0312.013703-.0488.003897-.0293.084897-.0645.119097-.0078.005903.0176.0127.0371.0205.0566h-.1533ZM121.1187902,31.7850425c.0137031-.0508.0293-.1054.042-.1601,0-.043.0928-.0723.1182-.0098.0224.0527.04.1113.0556.1699h-.2158ZM122.0367902,31.7850425c.0957031-.1601.1699-.3379.2275-.5371.0088-.0351.1045-.0703.1221,0,.0283.125.0586.3555.1094.5391l-.128-.002c-.0234-.0937-.0371-.1914-.0556-.2851-.0391.1015-.0811.1972-.1289.2851h-.1465ZM122.6519901,31.7850425c.1416-.332.4287-.6992.6641-.9121.331-.3008.6318-.5254.6728-1.0293.001-.0371.0625-.0879.1367-.0117.0918.0938.1573.2148.1358.3496.3877.0664,1.0547.3809,1.7002.791.3808.2442.7588.5235,1.0752.8125h-.1865c-.2872-.25-.6182-.4922-.9561-.707-.6875-.4375-1.375-.75-1.7196968-.7832-.0674031-.0156-.0528031-.084-.0528031-.084.0371-.0918.0098031-.168-.0273-.2246-.1045.5566-.4618969.7246-.8008,1.082-.1758.1875-.3828.459-.5039.7168h-.1377ZM124.4283901,31.7850425c.3261031-.084.6533-.1191.9804-.1113.2725.0059.6182.0488.9483.1113h-1.9287ZM115.0728903,30.4706425c-.8203.0605-1.0127.3222-1.1582.7695.2705-.1504.5742-.2051.8897-.1211.1054-.0762.2099-.1875.2382-.3086-.0078-.1211.001-.2402.0303-.3398h0Z"/><path d="M115.4146903,22.8363425c-.0811.0586-.1728.1113-.2803.1523.3135.2281.5625.2476,1.0303-.0117-.0088-.0117-.0186-.0234-.0293-.0371l-.0088-.0156-.0332-.0879h.1338l.0147.0352c.1318.1718.2177.1289.2685.0371.0117-.0215.0215-.045.0293-.0723h.1299c-.0117.0488-.0264.0937-.0498.1309-.0811.1523-.2188.1894-.3565.0976-.5537.3198-.8457.3159-1.3906-.123.1045-.0313.1992-.0664.2803-.1055h.2617ZM117.2017903,22.8363425c-.0029.0019-.0039.0039-.0039.0078-.0615.2246-.1035.4741-.0615.6753.0908.4121-.0078.8711-.3965,1.0859.3662.168.6123.125.9434-.1113.0293-.0215.1064-.0078.0986.0586-.0586.6777.0088.8984.3535,1.2207.0166-.3672.1846-.6758.3496-.834.0332-.0234.084-.0293.1006.0215.1162.2871.2051.5586.1533.8711.1582-.1387.3194-.3457.4883-.6348.0254-.0234.070303-.0625.1084.0039.2676.4864-.244097,1.0547.045903,1.2891.012697-.0176.025397-.0371.038097-.0586.1953-.3379.5361-.8555,1.0371-1.1133-.5791-.7265-.6621-1.2363-.4824-1.8828,0,0,.0117-.0742.081-.0449.6944.2402,1.2461.2402,1.867203-.1172l.0556969-.0332c-.1543-.1362-.3242-.271-.5078-.4038h.2099c.1465.1113.2862031.2227.4141.3359.582-.3398,1.3916-.2968,2.0009999-.0527,1.4209.5659,1.9541031.1577,2.0487999-.2051.0049-.0234.0088-.0508.0137-.0781h.1259c-.0058.0371-.0097.0742-.0185.1094-.125.4858-.7861.8608-2.2167968.2905-.459-.1851-1.2109031-.2808-1.7295031-.043-.2871.1289-.4697.293-.7969.4004-.3525.1113-.8095.1426-1.4443-.0625-.1504.5918-.0586,1.0606.5244,1.7696,0,0,.0381.0644-.0215.0976-.5029.2246-.8486.7422-1.0537,1.0957-.1523.2617-.4873.457-.770497.584.159197.0957.338897.1738.526397.2324h-.3428c-.125-.0547-.2422-.1211-.3525-.1933-.044-.0313-.044-.086.0117-.1075.2363-.0996.5185-.2402.699203-.4238-.338903-.2715.087897-.8125-.026403-1.2168-.1992.3164-.3984.541-.6025.666-.0557.0371-.1143-.0254-.0918-.0703.0996-.3125.041-.5703-.071297-.8633-.138703.1719-.266603.4707-.245103.8086-.001.0957-.088897.0664-.1035.0508-.443397-.3887-.5547-.6172-.5098-1.293-.3545.2207-.6494.2227-1.083-.0117-.0547-.0332-.0293-.0898.0107-.1133.42-.1523.5303-.5898.4395-.998-.048797-.2227-.0049-.4722.0547-.7085h.1318ZM130.9947899,22.8363425c.0722.5249.0605.9507-.0537,1.4331l-.0088.0605c-.0537.4844-.0039.9356.3877,1.834.0127.043.001.0957-.0752.084-.166-.0508-.333-.1172-.5078-.2539.1533.4453.2334.8613.1953,1.3164h-.125c.0498-.5488-.0869-.9844-.2735-1.5254-.0214-.0527.0508-.1113.1065-.0625.1728.2012.3418.2969.5117.3633-.3642-.8672-.4014-1.3223-.335-1.834.1133-.4765.128-.8945.0528-1.4155h.125ZM132.7808899,22.8363425c-.0019.0098-.0019.0176-.0058.0254,0,0,.0039.0469-.0625.0488-.8096-.0137-1.1348.3491-1.1905,1.1753.4385-.3203.7412-.2793,1.0381-.1621.4151.166.8565,1.2246,1.1992,1.5918.4776.5059.8819.875,1.2315,1.166.3095.2578.5771.4531.8086034.6289h-.2061034c-.2012-.1504-.4267-.3242-.6806-.5351-.3565-.293-.7647-.6641-1.2422-1.1739-.3194-.3359-.8077-1.4238-1.1573-1.5625-.2793-.1113-.5595-.1504-1.0185.2266-.0576.0449-.0977.0293-.1035-.0508.0244-.7715.2539-1.2319.8232033-1.3784h.5663966ZM134.2662899,22.8363425c-.1621.4194-.1289.9038.2314,1.4526.0879.1348.1953.2676.3164.3926.9112.9414,1.9004034,1.6035,2.6864999,2.6289h-.1590965c-.7705034-.9746-1.7295034-1.623-2.6162034-2.543-.5167-.5351-.8272-1.248-.5987-1.9311h.1397Z"/><path d="M115.1529903,22.8363425c.25-.1172.4082-.2715.5273-.5039-.1523-.1914-.1484-.3848.1094-.5488.3701-.2871.0625-.4668-.2295-.3125-.2461.3867-.5918.5293-.7295.2773-.292.0664-.4004.1816-.4921971.584-.3242029-.2344-.3955029-1.0938.2851971-1.4824-.0391-.293.2129-.4532.5439-.3301.169-.0215.4825-.2129.2549029-.3711-.1474029-.0547-.5215029-.127-.5635029-.3184-.0068-.0957.0147-.1601.0518-.2031-.25-.2539-.4805-.2383-.9258-.1914.4512-.6894,1.043-.7031,1.6758-.2871.041-.0234.0957029-.0391.1758-.0508.3486-.0371.3281.3789.2949029.5977-.0146029.3203.2528971.2578.3495971.0937.0283-.1894-.0175971-.3086-.0488-.4863-.0479-.2754.2402029-.416.4092029-.2637.041.0371.077097.0781.110297.1231.2139-.2481.1211-.6993.055703-.9825.649397.4532.834.5938.783197,1.3692.0322.0176.0654.0449.0947.0879.2129.3301-.0654.4922-.2861.6699-.050797.2852.2783.4863.4775.6094,1.0293.3965,2.5419999,1.1172,3.6034999,1.9199h-.2099c-1.0391-.752-2.4628969-1.4277-3.4443999-1.8047-.2177-.1328-.5742-.3711-.559497-.668.002897-.041.011697-.0722.014597-.0937l.0215-.043c.086903-.0722.2461-.1855.3057-.2773.041-.0606.0488-.125-.0254-.2403-.0811-.1152-.2422-.0468-.360397-.0527-.440403-.0215-.606403-.584-.7246029-.5527-.2383.0625-.1289.1953-.0967.3965.0127.0898.0186.1953.0039.3183l-.0078.0195c-.1377.2598-.6162.3438-.5879-.1542.0166-.125.0703-.4864-.1582-.461-.2968.0352-.1865.3145-.6093.4063-.1182.0254-.2686.0117-.2579.1777.0303.1055.4053.1934.4893.2266.3486.2304.0254.5781-.3086.6132l-.0293-.0039c-.2344-.0937-.5332.0098-.3545.2911.1338.2128.2168.291.1631.5839-.0078.0391-.0293.1192-.0137.1563.042.0879.252.166.5313-.2813l.0224-.0234c.4483-.25.876.1328.3789.5156-.2402.1524-.2236.3438.2344.6367l.0225.0293.1074.2852h-.1338l-.083-.2207c-.0918-.0606-.1738-.1231-.2393-.1856-.082.1465-.1953.2891-.3564.4063h-.2617ZM116.5396903,22.8363425c.041-.1387.0371-.3594-.0557-.6094-.124-.6523.8311-.6621.8467.086.001.1152-.0957.3964-.1289.5234h-.1318c.0322-.1152.0664-.2266.0957-.334.0254-.0898.04-.1523.04-.1875-.0107-.5605-.6846-.5898-.6035-.1269.0928.2461.1074.4785.0674.6484h-.1299ZM126.1578901,22.8363425c.0244-.2695-.1543-.6719-1.2881-.5625-.167,0-.2792968-.0137-.3789-.1406-.0957-.1172-.1631-.4883-.1503969-.7188l.0018969-.0137c.0332-.1132.0704-.1132.1289-.1855l.0284-.0215c.6748031-.2168,1.0566-.1426,1.583.084.3789.1621.5293-.0566.6611-.3613-.5518-.2891-.9014-.2266-1.5332-.1582-.2246.0254-.4639.1328-.6807.2011-.2861.0879-.6279.1758-.9863.168-.4707-.0078-.9414-.2207-1.1074-.7519-.1416-.4414.0537-.7969.4014-1.0411.0634.418.2353.6719.6064.8789.793.4375,1.4883-.1054,2.2851999-.0878.3867.0097.7607.1425,1.0839.3437-.0009-.0449-.0068-.0937-.0145968-.1445-.0449032-.3203-.1582032-.4883-.5908032-.5078-.5459-.0274-1.0039.4199-1.5498.2871-.5127-.1211-.5723-.5723-.5108-1.0059.0157-.1035.0528-.1875.0996-.2617-.1269-.0781-.1015-.2324-.0721969-.3535.0917969-.2383.3202969-.293.5165969-.3985.1113-.0605.2363-.0957.3496-.1445.1338032-.0566.2871-.1367.4375-.2695-.0694-.9082-.3672-1.5899-1.0322-2.2344.5244-.2891.8828-.1211,1.1904.3555.3877-.3125.8135.0488.8799.4218-.6621.2481-.4307.7657.08.7657.586,0,.6875-.5918.1211-.7481-.0263-.3613.1914-.5996.5625-.6191.0293-.2715.211-.5957.4815-.7031.292.1171.4346.3789.5049.6679.374.0137.6162032.3223.6308.6621-.6797.1895-.4472.7305.0977.7305.4502,0,.7519-.5488.0879-.7402.0078033-.3887.4248033-.7676.8261-.5117.3418-.502.7442-.4942,1.2071-.2168-.6299.6152-1.0205,1.2871-1.0713,2.1445.2461-.0527,1.0889033-.2051,1.2461.0937.0879.2852.1836.9063-.4707,1.7911.3164.3418.3623.8007.3457,1.4941l-.0039.1035c-.044.418.0478,1.0117.3388,1.3516.0567.0742-.041.1015-.041.1015-.1826.0137-.3593-.0117-.5273-.1211.0254.1309.0498.2579.0625.3789l-.125-.0019c-.0235-.1621-.0528-.3359-.0918-.5234-.0156-.0547.0674-.0899.1045033-.0567.1415967.1426.291.1934.4501967.2012-.126-.1953-.3671967-.6641-.2959-1.3399.0263-.7421-.0147-1.1757-.2969-1.4882-.1063967.1132-.2207.1699-.3076.1875l-.0244-.1211c.0674-.0157.1787-.0703.2802-.1973.6582-.8672.5625-1.4609.4893-1.707-.1278967-.2168-1.0146-.0449-1.1113-.0254-.1797.0937-.2823.1972-.3194.3086l-.1171967-.0391c.0332967-.1015.1025967-.1894.1992967-.2656h-4.2763999c-.1992.1738-.416.2695-.6582.3613-.1475.0567-.2988.1289-.4336.209-.0770969.043-.1318.0957-.165.1777-.0127.0508-.0459.1739.0166.211.0781-.0801.1416-.1504.1875-.1992l.0908031.0859c-.0498031.0547-.127.1406-.2031031.2383-.1436.2011-.17.5039-.1094.7383.043.1718.1533.33.4092.3925.4795.1133.9873031-.3183,1.5263031-.2929.4941968.0234.6552968.2402.71.6152.0106968.0879.0184968.1699.0184968.248-.0048.1602-.0224.2422-.0722.375l-.0049.0196-.0117.0273c-.1758.4063-.4072.5918-.8194.416-.5-.2148-.8496-.2851-1.4775-.0859-.041.0469-.0703.0547-.0927969.123-.0097031.2207.0595969.545.125.625.0634969.0801.1191968.0938.2763968.0938,1.165-.1113,1.4512.3184,1.4189.6875h-.1259ZM132.2144932,22.8363425c.1327967-.0332.2812967-.0508.4521966-.0508.1796-.7617.4345-1.3242,1.041-1.8125.7509-.6055,1.6758034-.957,2.5135999-1.4199.3877-.2129,1.3077-.6992,1.085-1.2637-.5762-.3847-.206-.8887.0664-1.0039,1.4961-.6289,3.1776999.6817,1.8545,2.2481-.5889.6933-1.957,1.1523-2.8026965,1.5449-.8057034.373-1.8448034.9492-2.1582034,1.7578h-.1397c.0664-.1973.1778-.3926.3418-.5801.9082-1.0351,2.2646999-1.3945,3.4521999-1.9746.4775-.2344.9453-.5117,1.2109035-.8281,1.2362965-1.4649-.335-2.6328-1.71-2.0547-.2421035.1035-.497.4961-.0302035.7949l.0224.0293c.2901.666-.6718,1.1856-1.1328,1.4395-.8515.4687-1.8262.8359-2.5663966,1.4668-.4043034.3418-.7168034.7773-.9336034,1.707h-.5663966ZM126.78379,20.7953425c.0186-.0567.0284-.1153.0323-.1778-.5293-.3613-1.0547-.4335-1.6582-.2988-.6211.1367-1.1465.3516-1.7725.002-.3086-.17-.5498-.4239-.6328-.7637-.1865.1758-.2969.4668-.2002.7812.2744.8633,1.2969.7012,1.9424.5.2226-.0683.4668-.1777.7012-.2031.5918-.0644,1.04-.1367,1.5878.1602h0ZM125.5699901,15.9203425c-.2539-.4258-.5537-.6094-.9151-.4531.5586031.5703.8829,1.2949.9454,2.166h4.3163999c.0253-.545.2353-1.336.9951-2.1055-.4444-.2305-.7295-.0176-.9737.375-.2353-.2109-.6757-.1582-.7285.2363.6582.2266.3809033.9551-.2148.9551-.6787,0-.9102-.7187-.2295-.9473-.0537-.2968-.3057-.4531-.5996-.4453-.0508-.2461-.1494-.541-.4043-.6582-.2412.1211-.3535.4492-.3594.6934-.2656-.0039-.5566.0801-.5654.4004.5791.1972.4922.9668-.2403.9668-.6474,0-.8671-.6875-.2216-.9668-.1171968-.4043-.5284-.3965-.7637-.1465l-.041-.0703h0ZM114.6597903,20.9730425c-.4834.291-.5244.7774-.3662,1.2051.041-.2969.2051-.4746.5068-.5469.004-.1445.1104-.3086-.0771-.5605-.0215-.0313-.0469-.0625-.0635-.0977h0ZM115.5679903,19.2367425c-.5986-.3789-1.0537-.2695-1.3252.0508.3516-.0196.5674.0468.7754.2695.1416-.0527.3408-.0508.458-.1953.0381-.0488.0664-.0899.0918-.125h0ZM117.6656903,19.5179425c.0371-.6211-.0996-.7871-.4717-1.0547.042.2989.0117.6172-.1621.8067.099603.1328.2031.2539.3955.2617.0869.0039.164103-.0137.2383-.0137h0ZM126.94199,20.5550425c0,.1309-.0214.252-.0722.375.0498-.1328.0674-.2148.0722-.375h0Z"/><path d="M115.5679903,19.2367425c-.5986-.3789-1.0537-.2695-1.3252.0508.3516-.0196.5674.0468.7754.2695.1416-.0527.3408-.0508.458-.1953.0381-.0488.0664-.0899.0918-.125h0Z" fill="#fc0"/><path d="M117.6656903,19.5179425c.0371-.6211-.0996-.7871-.4717-1.0547.042.2989.0117.6172-.1621.8067.099603.1328.2031.2539.3955.2617.0869.0039.164103-.0137.2383-.0137h0Z" fill="#fc0"/><path d="M114.6597903,20.9730425c-.4834.291-.5244.7774-.3662,1.2051.041-.2969.2051-.4746.5068-.5469.004-.1445.1104-.3086-.0771-.5605-.0215-.0313-.0469-.0625-.0635-.0977h0Z" fill="#fc0"/><path d="M115.7710903,22.4300425c-.124.2207-.3164.4336-.6367.5586.3135.2281.5625.2476,1.0303-.0117-.0088-.0117-.0186-.0234-.0293-.0371l-.0088-.0156-.1162-.3086c-.0918-.0606-.1738-.1231-.2393-.1856h0Z" fill="#fc0"/><path d="M115.0728903,30.4706425c-.8203.0605-1.0127.3222-1.1582.7695.2705-.1504.5742-.2051.8897-.1211.1054-.0762.2099-.1875.2382-.3086-.0078-.1211.001-.2402.0303-.3398h0Z" fill="#fc0"/><path d="M114.5025904,32.5096425c-.416.3418-.4424,1.1407-.2012,1.5235.084-.3946.2539-.6797.5684-.8516-.002-.043.0029-.0918.0078-.1445l.0078-.0176c.0332-.0723-.1143-.4121-.3828-.5098h0Z" fill="#fc0"/><path d="M116.0718903,33.4198425c.1543.5039.5186029.8887.9834,1-.1992-.3125-.2392-.6484-.2197-1.0586-.042.002-.0918-.0039-.1455-.0156l-.0205-.0078c-.1230971-.0782-.4248-.0606-.5137.0488l-.0332.0215c-.0166.0039-.0341971.0078-.0508.0117h0Z" fill="#fc0"/><path d="M117.8599903,32.9549425c.126.1719.1797.377.0547.6836.46-.1679.591803-.5175.5303-.8925-.0469.0078-.103497.0097-.168.0058l-.0244-.0078c-.1094-.0547-.2197-.0391-.2744.0508-.0371.0625-.0772.1152-.1182.1601h0Z" fill="#fc0"/><path d="M119.2398902,40.2655425c-.7168-.1621-1.1816.2246-1.4043.6894.337903-.1835.624-.1777.9883.0313.1172-.0273.223603-.0488.2451-.1992.0332-.2246.0928-.3985.1709-.5215h0Z" fill="#fc0"/><path d="M118.5289902,41.6444425c-.4668.4785-.3926.8965-.1807,1.3379.074203-.3164.2539-.502.4873-.5606.0137-.1718.0791-.4609-.0303-.5312-.1181-.0742-.2177-.1523-.2763-.2461h0Z" fill="#fc0"/><path d="M119.3277902,42.6932425c-.155297.5469-.001,1.1426.3623,1.3438-.0332-.2539-.0039-.5645.251-.752-.0508-.0722-.0918-.1679-.1143-.2929-.1728,0-.3564-.1465-.499-.2989h0Z" fill="#fc0"/><path d="M121.8345902,42.9335425c.2168.2988.2354.4785.1358.8515.4004-.2441.665-.5195.6035-1.1504-.0928.0196-.2031.0196-.3252.0118-.2383-.0196-.25.0703-.3916.2578l-.0225.0293h0Z" fill="#fc0"/><path d="M131.8082899,43.9081425c-.2597967.5449-.087,1.0761.2451,1.4687-.003-.3828.1396-.666.3301033-.8633-.0108033-.0214-.0176033-.0429-.0245033-.0683-.0293-.1113-.0459-.2285-.1211-.3223-.0918-.1543-.247-.2656-.4296-.2148h0Z" fill="#fc0"/><path d="M130.1334932,42.5350425c-.3174033.1739-.504.4141-.5713033.8125-.0098.0645-.0176.1289-.0254.1934.2177033-.1992.4668-.2598.7705-.2754-.0371-.1191-.0087967-.2734.0019-.3789-.0185-.0859-.125-.2324-.1756967-.3516h0Z" fill="#fc0"/><path d="M130.22429,44.1698425c-.3047.5078-.1582.9453.0674,1.3262.0488033-.3282.1162-.5918.3662-.7891-.0166-.0293-.0293-.0586-.042-.0898-.0459-.2207-.2578-.4043-.3916-.4473h0Z" fill="#fc0"/><path d="M133.8248899,43.0331425c.2724.0449.6084.2265.7841.4863.0957-.4668.0166-.9375-.4374966-1.3457-.4384034.1504-.3984034.543-.3466034.8594h0Z" fill="#fc0"/></g></svg>