<svg xmlns="http://www.w3.org/2000/svg" viewBox="0 0 300 100">
    <path d="M60 10 L10 60 L10 70L60 70 L60 90 L70 90 L70 70 L90 70 L90 60 L70 60 L70 10 L60 10 L60 60 L20 60L 60 20Z" fill="black"/>
    <path d="M130 10 L110 30 L110 70 L130 90 L170 90 L190 70 L190 30 L170 10 L130 10 L130 20 L170 20 L180 30 L180 70 L170 80 L130 80 L120 70 L120 30 L130 20 Z" fill="black"/>
    <path d="M260 10 L210 60 L210 70L260 70 L260 90 L270 90 L270 70 L290 70 L290 60 L270 60 L270 10 L260 10 L260 60 L220 60L260 20Z" fill="black"/>
</svg>
